<mxfile host="app.diagrams.net" modified="2022-11-18T12:22:14.253Z" agent="5.0 (X11; Linux x86_64) AppleWebKit/537.36 (KHTML, like Gecko) Chrome/106.0.0.0 Safari/537.36" etag="OMiHqGX-3mPqdKsiJxxQ" version="20.5.3" type="github" pages="2">
  <diagram id="5nqnSMQBZ_BNACH58uK6" name="Page-1">
    <mxGraphModel dx="2368" dy="3532" grid="1" gridSize="10" guides="1" tooltips="1" connect="1" arrows="1" fold="1" page="1" pageScale="1" pageWidth="850" pageHeight="1100" math="0" shadow="0">
      <root>
        <mxCell id="0" />
        <mxCell id="1" parent="0" />
        <mxCell id="oIq1Fcmr9-6_nXg10YBY-58" value="" style="group" parent="1" vertex="1" connectable="0">
          <mxGeometry x="160" y="160" width="880" height="440" as="geometry" />
        </mxCell>
        <mxCell id="oIq1Fcmr9-6_nXg10YBY-4" value="&lt;h1&gt;Kontrolný zoznam kvality&lt;/h1&gt;" style="text;html=1;strokeColor=none;fillColor=none;spacing=5;spacingTop=-20;whiteSpace=wrap;overflow=hidden;rounded=0;" parent="oIq1Fcmr9-6_nXg10YBY-58" vertex="1">
          <mxGeometry width="330" height="40" as="geometry" />
        </mxCell>
        <mxCell id="oIq1Fcmr9-6_nXg10YBY-18" value="" style="ellipse;whiteSpace=wrap;html=1;aspect=fixed;fillColor=#000000;" parent="oIq1Fcmr9-6_nXg10YBY-58" vertex="1">
          <mxGeometry x="20" y="130.0000000000001" width="20" height="20" as="geometry" />
        </mxCell>
        <mxCell id="oIq1Fcmr9-6_nXg10YBY-19" value="k§p" style="rounded=1;whiteSpace=wrap;html=1;labelBackgroundColor=none;fillColor=#dae8fc;strokeColor=#6c8ebf;" parent="oIq1Fcmr9-6_nXg10YBY-58" vertex="1">
          <mxGeometry x="140" y="120" width="110" height="40" as="geometry" />
        </mxCell>
        <mxCell id="oIq1Fcmr9-6_nXg10YBY-29" style="edgeStyle=orthogonalEdgeStyle;rounded=0;orthogonalLoop=1;jettySize=auto;html=1;exitX=1;exitY=0.5;exitDx=0;exitDy=0;entryX=0;entryY=0.5;entryDx=0;entryDy=0;labelBackgroundColor=#FFFFFF;" parent="oIq1Fcmr9-6_nXg10YBY-58" source="oIq1Fcmr9-6_nXg10YBY-18" target="oIq1Fcmr9-6_nXg10YBY-19" edge="1">
          <mxGeometry relative="1" as="geometry" />
        </mxCell>
        <mxCell id="oIq1Fcmr9-6_nXg10YBY-60" value="potreba &lt;br&gt;návrhu" style="edgeLabel;html=1;align=center;verticalAlign=middle;resizable=0;points=[];fontColor=default;" parent="oIq1Fcmr9-6_nXg10YBY-29" vertex="1" connectable="0">
          <mxGeometry x="-0.38" y="-1" relative="1" as="geometry">
            <mxPoint x="9" y="-1" as="offset" />
          </mxGeometry>
        </mxCell>
        <mxCell id="oIq1Fcmr9-6_nXg10YBY-30" style="edgeStyle=orthogonalEdgeStyle;rounded=0;orthogonalLoop=1;jettySize=auto;html=1;exitX=1;exitY=0.5;exitDx=0;exitDy=0;entryX=0;entryY=0.5;entryDx=0;entryDy=0;labelBackgroundColor=#FFFFFF;" parent="oIq1Fcmr9-6_nXg10YBY-58" edge="1">
          <mxGeometry relative="1" as="geometry">
            <mxPoint x="250" y="139.7100000000001" as="sourcePoint" />
            <mxPoint x="350" y="139.70999999999998" as="targetPoint" />
          </mxGeometry>
        </mxCell>
        <mxCell id="oIq1Fcmr9-6_nXg10YBY-61" value="Text" style="edgeLabel;html=1;align=center;verticalAlign=middle;resizable=0;points=[];fontColor=default;" parent="oIq1Fcmr9-6_nXg10YBY-30" vertex="1" connectable="0">
          <mxGeometry x="0.0086" y="2" relative="1" as="geometry">
            <mxPoint as="offset" />
          </mxGeometry>
        </mxCell>
        <mxCell id="oIq1Fcmr9-6_nXg10YBY-31" value="k§p" style="rounded=1;whiteSpace=wrap;html=1;labelBackgroundColor=none;fillColor=#dae8fc;strokeColor=#6c8ebf;" parent="oIq1Fcmr9-6_nXg10YBY-58" vertex="1">
          <mxGeometry x="350" y="120" width="110" height="40" as="geometry" />
        </mxCell>
        <mxCell id="oIq1Fcmr9-6_nXg10YBY-32" style="edgeStyle=orthogonalEdgeStyle;rounded=0;orthogonalLoop=1;jettySize=auto;html=1;exitX=1;exitY=0.5;exitDx=0;exitDy=0;entryX=0;entryY=0.5;entryDx=0;entryDy=0;labelBackgroundColor=#FFFFFF;" parent="oIq1Fcmr9-6_nXg10YBY-58" edge="1">
          <mxGeometry relative="1" as="geometry">
            <mxPoint x="460" y="139.50000000000006" as="sourcePoint" />
            <mxPoint x="560" y="139.50000000000006" as="targetPoint" />
          </mxGeometry>
        </mxCell>
        <mxCell id="oIq1Fcmr9-6_nXg10YBY-33" value="k§p" style="rounded=1;whiteSpace=wrap;html=1;labelBackgroundColor=none;fillColor=#dae8fc;strokeColor=#6c8ebf;" parent="oIq1Fcmr9-6_nXg10YBY-58" vertex="1">
          <mxGeometry x="560" y="120" width="110" height="40" as="geometry" />
        </mxCell>
        <mxCell id="oIq1Fcmr9-6_nXg10YBY-34" style="edgeStyle=orthogonalEdgeStyle;rounded=0;orthogonalLoop=1;jettySize=auto;html=1;exitX=1;exitY=0.5;exitDx=0;exitDy=0;entryX=0;entryY=0.5;entryDx=0;entryDy=0;labelBackgroundColor=#FFFFFF;" parent="oIq1Fcmr9-6_nXg10YBY-58" edge="1">
          <mxGeometry relative="1" as="geometry">
            <mxPoint x="670" y="139.5" as="sourcePoint" />
            <mxPoint x="770" y="139.5" as="targetPoint" />
          </mxGeometry>
        </mxCell>
        <mxCell id="oIq1Fcmr9-6_nXg10YBY-35" value="navrhnutý" style="rounded=1;whiteSpace=wrap;html=1;labelBackgroundColor=none;fillColor=#dae8fc;strokeColor=#6c8ebf;" parent="oIq1Fcmr9-6_nXg10YBY-58" vertex="1">
          <mxGeometry x="770" y="120" width="110" height="40" as="geometry" />
        </mxCell>
        <mxCell id="oIq1Fcmr9-6_nXg10YBY-37" value="otestovaný" style="rounded=1;whiteSpace=wrap;html=1;labelBackgroundColor=none;fillColor=#dae8fc;strokeColor=#6c8ebf;" parent="oIq1Fcmr9-6_nXg10YBY-58" vertex="1">
          <mxGeometry x="770" y="220" width="110" height="40" as="geometry" />
        </mxCell>
        <mxCell id="oIq1Fcmr9-6_nXg10YBY-39" style="edgeStyle=orthogonalEdgeStyle;rounded=0;orthogonalLoop=1;jettySize=auto;html=1;exitX=0.5;exitY=1;exitDx=0;exitDy=0;entryX=0.5;entryY=0;entryDx=0;entryDy=0;labelBackgroundColor=#FFFFFF;" parent="oIq1Fcmr9-6_nXg10YBY-58" source="oIq1Fcmr9-6_nXg10YBY-35" target="oIq1Fcmr9-6_nXg10YBY-37" edge="1">
          <mxGeometry relative="1" as="geometry" />
        </mxCell>
        <mxCell id="oIq1Fcmr9-6_nXg10YBY-43" value="fdsgsdgsdgsdghasd" style="edgeStyle=orthogonalEdgeStyle;rounded=0;orthogonalLoop=1;jettySize=auto;html=1;exitX=0.5;exitY=1;exitDx=0;exitDy=0;labelBackgroundColor=#FFFFFF;entryX=0.5;entryY=0;entryDx=0;entryDy=0;" parent="oIq1Fcmr9-6_nXg10YBY-58" source="oIq1Fcmr9-6_nXg10YBY-38" edge="1">
          <mxGeometry relative="1" as="geometry">
            <mxPoint x="826" y="440" as="targetPoint" />
          </mxGeometry>
        </mxCell>
        <mxCell id="oIq1Fcmr9-6_nXg10YBY-38" value="k§p" style="rounded=1;whiteSpace=wrap;html=1;labelBackgroundColor=none;fillColor=#dae8fc;strokeColor=#6c8ebf;" parent="oIq1Fcmr9-6_nXg10YBY-58" vertex="1">
          <mxGeometry x="770" y="320" width="110" height="40" as="geometry" />
        </mxCell>
        <mxCell id="oIq1Fcmr9-6_nXg10YBY-41" style="edgeStyle=orthogonalEdgeStyle;rounded=0;orthogonalLoop=1;jettySize=auto;html=1;exitX=0.5;exitY=1;exitDx=0;exitDy=0;entryX=0.5;entryY=0;entryDx=0;entryDy=0;labelBackgroundColor=#FFFFFF;" parent="oIq1Fcmr9-6_nXg10YBY-58" source="oIq1Fcmr9-6_nXg10YBY-37" target="oIq1Fcmr9-6_nXg10YBY-38" edge="1">
          <mxGeometry relative="1" as="geometry" />
        </mxCell>
        <mxCell id="oIq1Fcmr9-6_nXg10YBY-62" value="" style="group" parent="1" vertex="1" connectable="0">
          <mxGeometry x="160" y="680" width="880" height="440" as="geometry" />
        </mxCell>
        <mxCell id="oIq1Fcmr9-6_nXg10YBY-63" value="&lt;h1&gt;Materiál&lt;/h1&gt;" style="text;html=1;strokeColor=none;fillColor=none;spacing=5;spacingTop=-20;whiteSpace=wrap;overflow=hidden;rounded=0;" parent="oIq1Fcmr9-6_nXg10YBY-62" vertex="1">
          <mxGeometry width="220" height="70" as="geometry" />
        </mxCell>
        <mxCell id="oIq1Fcmr9-6_nXg10YBY-64" value="" style="ellipse;whiteSpace=wrap;html=1;aspect=fixed;fillColor=#000000;" parent="oIq1Fcmr9-6_nXg10YBY-62" vertex="1">
          <mxGeometry x="20" y="130.0000000000001" width="20" height="20" as="geometry" />
        </mxCell>
        <mxCell id="oIq1Fcmr9-6_nXg10YBY-65" value="navrhnutý" style="rounded=1;whiteSpace=wrap;html=1;labelBackgroundColor=none;fillColor=#dae8fc;strokeColor=#6c8ebf;" parent="oIq1Fcmr9-6_nXg10YBY-62" vertex="1">
          <mxGeometry x="140" y="120" width="110" height="40" as="geometry" />
        </mxCell>
        <mxCell id="oIq1Fcmr9-6_nXg10YBY-66" style="edgeStyle=orthogonalEdgeStyle;rounded=0;orthogonalLoop=1;jettySize=auto;html=1;exitX=1;exitY=0.5;exitDx=0;exitDy=0;entryX=0;entryY=0.5;entryDx=0;entryDy=0;labelBackgroundColor=#FFFFFF;" parent="oIq1Fcmr9-6_nXg10YBY-62" source="oIq1Fcmr9-6_nXg10YBY-64" target="oIq1Fcmr9-6_nXg10YBY-65" edge="1">
          <mxGeometry relative="1" as="geometry" />
        </mxCell>
        <mxCell id="oIq1Fcmr9-6_nXg10YBY-67" value="potreba &lt;br&gt;návrhu" style="edgeLabel;html=1;align=center;verticalAlign=middle;resizable=0;points=[];fontColor=default;" parent="oIq1Fcmr9-6_nXg10YBY-66" vertex="1" connectable="0">
          <mxGeometry x="-0.38" y="-1" relative="1" as="geometry">
            <mxPoint x="9" y="-1" as="offset" />
          </mxGeometry>
        </mxCell>
        <mxCell id="oIq1Fcmr9-6_nXg10YBY-68" style="edgeStyle=orthogonalEdgeStyle;rounded=0;orthogonalLoop=1;jettySize=auto;html=1;exitX=1;exitY=0.5;exitDx=0;exitDy=0;entryX=0;entryY=0.5;entryDx=0;entryDy=0;labelBackgroundColor=#FFFFFF;" parent="oIq1Fcmr9-6_nXg10YBY-62" edge="1">
          <mxGeometry relative="1" as="geometry">
            <mxPoint x="250" y="139.7100000000001" as="sourcePoint" />
            <mxPoint x="350" y="139.70999999999998" as="targetPoint" />
          </mxGeometry>
        </mxCell>
        <mxCell id="oIq1Fcmr9-6_nXg10YBY-69" value="Text" style="edgeLabel;html=1;align=center;verticalAlign=middle;resizable=0;points=[];fontColor=default;" parent="oIq1Fcmr9-6_nXg10YBY-68" vertex="1" connectable="0">
          <mxGeometry x="0.0086" y="2" relative="1" as="geometry">
            <mxPoint as="offset" />
          </mxGeometry>
        </mxCell>
        <mxCell id="oIq1Fcmr9-6_nXg10YBY-70" value="skontrolované&lt;br&gt;požiadavky" style="rounded=1;whiteSpace=wrap;html=1;labelBackgroundColor=none;fillColor=#dae8fc;strokeColor=#6c8ebf;" parent="oIq1Fcmr9-6_nXg10YBY-62" vertex="1">
          <mxGeometry x="350" y="120" width="110" height="40" as="geometry" />
        </mxCell>
        <mxCell id="oIq1Fcmr9-6_nXg10YBY-71" style="edgeStyle=orthogonalEdgeStyle;rounded=0;orthogonalLoop=1;jettySize=auto;html=1;exitX=1;exitY=0.5;exitDx=0;exitDy=0;entryX=0;entryY=0.5;entryDx=0;entryDy=0;labelBackgroundColor=#FFFFFF;" parent="oIq1Fcmr9-6_nXg10YBY-62" edge="1">
          <mxGeometry relative="1" as="geometry">
            <mxPoint x="460" y="139.50000000000006" as="sourcePoint" />
            <mxPoint x="560" y="139.50000000000006" as="targetPoint" />
          </mxGeometry>
        </mxCell>
        <mxCell id="oIq1Fcmr9-6_nXg10YBY-72" value="materiál dovezený&lt;br&gt;skontrolované požiadavky" style="rounded=1;whiteSpace=wrap;html=1;labelBackgroundColor=none;fillColor=#dae8fc;strokeColor=#6c8ebf;" parent="oIq1Fcmr9-6_nXg10YBY-62" vertex="1">
          <mxGeometry x="560" y="120" width="110" height="40" as="geometry" />
        </mxCell>
        <mxCell id="oIq1Fcmr9-6_nXg10YBY-73" style="edgeStyle=orthogonalEdgeStyle;rounded=0;orthogonalLoop=1;jettySize=auto;html=1;exitX=1;exitY=0.5;exitDx=0;exitDy=0;entryX=0;entryY=0.5;entryDx=0;entryDy=0;labelBackgroundColor=#FFFFFF;" parent="oIq1Fcmr9-6_nXg10YBY-62" edge="1">
          <mxGeometry relative="1" as="geometry">
            <mxPoint x="670" y="139.5" as="sourcePoint" />
            <mxPoint x="770" y="139.5" as="targetPoint" />
          </mxGeometry>
        </mxCell>
        <mxCell id="oIq1Fcmr9-6_nXg10YBY-74" value="navrhnutý" style="rounded=1;whiteSpace=wrap;html=1;labelBackgroundColor=none;fillColor=#dae8fc;strokeColor=#6c8ebf;" parent="oIq1Fcmr9-6_nXg10YBY-62" vertex="1">
          <mxGeometry x="770" y="120" width="110" height="40" as="geometry" />
        </mxCell>
        <mxCell id="oIq1Fcmr9-6_nXg10YBY-75" value="otestovaný" style="rounded=1;whiteSpace=wrap;html=1;labelBackgroundColor=none;fillColor=#dae8fc;strokeColor=#6c8ebf;" parent="oIq1Fcmr9-6_nXg10YBY-62" vertex="1">
          <mxGeometry x="770" y="220" width="110" height="40" as="geometry" />
        </mxCell>
        <mxCell id="oIq1Fcmr9-6_nXg10YBY-76" style="edgeStyle=orthogonalEdgeStyle;rounded=0;orthogonalLoop=1;jettySize=auto;html=1;exitX=0.5;exitY=1;exitDx=0;exitDy=0;entryX=0.5;entryY=0;entryDx=0;entryDy=0;labelBackgroundColor=#FFFFFF;" parent="oIq1Fcmr9-6_nXg10YBY-62" source="oIq1Fcmr9-6_nXg10YBY-74" target="oIq1Fcmr9-6_nXg10YBY-75" edge="1">
          <mxGeometry relative="1" as="geometry" />
        </mxCell>
        <mxCell id="oIq1Fcmr9-6_nXg10YBY-77" value="fdsgsdgsdgsdghasd" style="edgeStyle=orthogonalEdgeStyle;rounded=0;orthogonalLoop=1;jettySize=auto;html=1;exitX=0.5;exitY=1;exitDx=0;exitDy=0;labelBackgroundColor=#FFFFFF;entryX=0.5;entryY=0;entryDx=0;entryDy=0;" parent="oIq1Fcmr9-6_nXg10YBY-62" source="oIq1Fcmr9-6_nXg10YBY-78" edge="1">
          <mxGeometry relative="1" as="geometry">
            <mxPoint x="826" y="440" as="targetPoint" />
          </mxGeometry>
        </mxCell>
        <mxCell id="oIq1Fcmr9-6_nXg10YBY-78" value="k§p" style="rounded=1;whiteSpace=wrap;html=1;labelBackgroundColor=none;fillColor=#dae8fc;strokeColor=#6c8ebf;" parent="oIq1Fcmr9-6_nXg10YBY-62" vertex="1">
          <mxGeometry x="770" y="320" width="110" height="40" as="geometry" />
        </mxCell>
        <mxCell id="oIq1Fcmr9-6_nXg10YBY-79" style="edgeStyle=orthogonalEdgeStyle;rounded=0;orthogonalLoop=1;jettySize=auto;html=1;exitX=0.5;exitY=1;exitDx=0;exitDy=0;entryX=0.5;entryY=0;entryDx=0;entryDy=0;labelBackgroundColor=#FFFFFF;" parent="oIq1Fcmr9-6_nXg10YBY-62" source="oIq1Fcmr9-6_nXg10YBY-75" target="oIq1Fcmr9-6_nXg10YBY-78" edge="1">
          <mxGeometry relative="1" as="geometry" />
        </mxCell>
        <mxCell id="oIq1Fcmr9-6_nXg10YBY-80" value="" style="group" parent="1" vertex="1" connectable="0">
          <mxGeometry x="180" y="-340" width="880" height="440" as="geometry" />
        </mxCell>
        <mxCell id="oIq1Fcmr9-6_nXg10YBY-81" value="&lt;h1&gt;Objednávka nábytku&lt;/h1&gt;" style="text;html=1;strokeColor=none;fillColor=none;spacing=5;spacingTop=-20;whiteSpace=wrap;overflow=hidden;rounded=0;" parent="oIq1Fcmr9-6_nXg10YBY-80" vertex="1">
          <mxGeometry width="270" height="40" as="geometry" />
        </mxCell>
        <mxCell id="oIq1Fcmr9-6_nXg10YBY-82" value="" style="ellipse;whiteSpace=wrap;html=1;aspect=fixed;fillColor=#000000;" parent="oIq1Fcmr9-6_nXg10YBY-80" vertex="1">
          <mxGeometry x="20" y="130.0000000000001" width="20" height="20" as="geometry" />
        </mxCell>
        <mxCell id="oIq1Fcmr9-6_nXg10YBY-83" value="prijatá" style="rounded=1;whiteSpace=wrap;html=1;labelBackgroundColor=none;fillColor=#dae8fc;strokeColor=#6c8ebf;" parent="oIq1Fcmr9-6_nXg10YBY-80" vertex="1">
          <mxGeometry x="140" y="120" width="110" height="40" as="geometry" />
        </mxCell>
        <mxCell id="oIq1Fcmr9-6_nXg10YBY-84" value="" style="edgeStyle=orthogonalEdgeStyle;rounded=0;orthogonalLoop=1;jettySize=auto;html=1;exitX=1;exitY=0.5;exitDx=0;exitDy=0;entryX=0;entryY=0.5;entryDx=0;entryDy=0;labelBackgroundColor=#FFFFFF;" parent="oIq1Fcmr9-6_nXg10YBY-80" source="oIq1Fcmr9-6_nXg10YBY-82" target="oIq1Fcmr9-6_nXg10YBY-83" edge="1">
          <mxGeometry relative="1" as="geometry" />
        </mxCell>
        <mxCell id="oIq1Fcmr9-6_nXg10YBY-86" style="edgeStyle=orthogonalEdgeStyle;rounded=0;orthogonalLoop=1;jettySize=auto;html=1;exitX=1;exitY=0.5;exitDx=0;exitDy=0;entryX=0;entryY=0.5;entryDx=0;entryDy=0;labelBackgroundColor=#FFFFFF;" parent="oIq1Fcmr9-6_nXg10YBY-80" edge="1">
          <mxGeometry relative="1" as="geometry">
            <mxPoint x="250" y="139.7100000000001" as="sourcePoint" />
            <mxPoint x="350" y="139.70999999999998" as="targetPoint" />
          </mxGeometry>
        </mxCell>
        <mxCell id="oIq1Fcmr9-6_nXg10YBY-87" value="Text" style="edgeLabel;html=1;align=center;verticalAlign=middle;resizable=0;points=[];fontColor=default;" parent="oIq1Fcmr9-6_nXg10YBY-86" vertex="1" connectable="0">
          <mxGeometry x="0.0086" y="2" relative="1" as="geometry">
            <mxPoint as="offset" />
          </mxGeometry>
        </mxCell>
        <mxCell id="oIq1Fcmr9-6_nXg10YBY-88" value="zabezpečená" style="rounded=1;whiteSpace=wrap;html=1;labelBackgroundColor=none;fillColor=#dae8fc;strokeColor=#6c8ebf;" parent="oIq1Fcmr9-6_nXg10YBY-80" vertex="1">
          <mxGeometry x="350" y="120" width="110" height="40" as="geometry" />
        </mxCell>
        <mxCell id="oIq1Fcmr9-6_nXg10YBY-89" style="edgeStyle=orthogonalEdgeStyle;rounded=0;orthogonalLoop=1;jettySize=auto;html=1;exitX=1;exitY=0.5;exitDx=0;exitDy=0;entryX=0;entryY=0.5;entryDx=0;entryDy=0;labelBackgroundColor=#FFFFFF;" parent="oIq1Fcmr9-6_nXg10YBY-80" edge="1">
          <mxGeometry relative="1" as="geometry">
            <mxPoint x="460" y="139.50000000000006" as="sourcePoint" />
            <mxPoint x="560" y="139.50000000000006" as="targetPoint" />
          </mxGeometry>
        </mxCell>
        <mxCell id="oIq1Fcmr9-6_nXg10YBY-90" value="k§p" style="rounded=1;whiteSpace=wrap;html=1;labelBackgroundColor=none;fillColor=#dae8fc;strokeColor=#6c8ebf;" parent="oIq1Fcmr9-6_nXg10YBY-80" vertex="1">
          <mxGeometry x="560" y="120" width="110" height="40" as="geometry" />
        </mxCell>
        <mxCell id="oIq1Fcmr9-6_nXg10YBY-91" style="edgeStyle=orthogonalEdgeStyle;rounded=0;orthogonalLoop=1;jettySize=auto;html=1;exitX=1;exitY=0.5;exitDx=0;exitDy=0;labelBackgroundColor=#FFFFFF;entryX=0;entryY=0.5;entryDx=0;entryDy=0;" parent="oIq1Fcmr9-6_nXg10YBY-80" target="oIq1Fcmr9-6_nXg10YBY-92" edge="1">
          <mxGeometry relative="1" as="geometry">
            <mxPoint x="670" y="139.5" as="sourcePoint" />
            <mxPoint x="760" y="140" as="targetPoint" />
          </mxGeometry>
        </mxCell>
        <mxCell id="oIq1Fcmr9-6_nXg10YBY-92" value="navrhnutý" style="rounded=1;whiteSpace=wrap;html=1;labelBackgroundColor=none;fillColor=#dae8fc;strokeColor=#6c8ebf;" parent="oIq1Fcmr9-6_nXg10YBY-80" vertex="1">
          <mxGeometry x="770" y="120" width="100" height="40" as="geometry" />
        </mxCell>
        <mxCell id="oIq1Fcmr9-6_nXg10YBY-93" value="otestovaný" style="rounded=1;whiteSpace=wrap;html=1;labelBackgroundColor=none;fillColor=#dae8fc;strokeColor=#6c8ebf;" parent="oIq1Fcmr9-6_nXg10YBY-80" vertex="1">
          <mxGeometry x="770" y="220" width="100" height="40" as="geometry" />
        </mxCell>
        <mxCell id="oIq1Fcmr9-6_nXg10YBY-94" style="edgeStyle=orthogonalEdgeStyle;rounded=0;orthogonalLoop=1;jettySize=auto;html=1;exitX=0.5;exitY=1;exitDx=0;exitDy=0;entryX=0.5;entryY=0;entryDx=0;entryDy=0;labelBackgroundColor=#FFFFFF;" parent="oIq1Fcmr9-6_nXg10YBY-80" source="oIq1Fcmr9-6_nXg10YBY-92" target="oIq1Fcmr9-6_nXg10YBY-93" edge="1">
          <mxGeometry relative="1" as="geometry" />
        </mxCell>
        <mxCell id="oIq1Fcmr9-6_nXg10YBY-96" value="k§p" style="rounded=1;whiteSpace=wrap;html=1;labelBackgroundColor=none;fillColor=#dae8fc;strokeColor=#6c8ebf;" parent="oIq1Fcmr9-6_nXg10YBY-80" vertex="1">
          <mxGeometry x="770" y="320" width="100" height="40" as="geometry" />
        </mxCell>
        <mxCell id="oIq1Fcmr9-6_nXg10YBY-97" style="edgeStyle=orthogonalEdgeStyle;rounded=0;orthogonalLoop=1;jettySize=auto;html=1;exitX=0.5;exitY=1;exitDx=0;exitDy=0;entryX=0.5;entryY=0;entryDx=0;entryDy=0;labelBackgroundColor=#FFFFFF;" parent="oIq1Fcmr9-6_nXg10YBY-80" source="oIq1Fcmr9-6_nXg10YBY-93" target="oIq1Fcmr9-6_nXg10YBY-96" edge="1">
          <mxGeometry relative="1" as="geometry" />
        </mxCell>
        <mxCell id="oIq1Fcmr9-6_nXg10YBY-98" value="" style="group" parent="1" vertex="1" connectable="0">
          <mxGeometry x="180" y="-840" width="880" height="440" as="geometry" />
        </mxCell>
        <mxCell id="oIq1Fcmr9-6_nXg10YBY-99" value="&lt;h1&gt;Nábytok&lt;/h1&gt;" style="text;html=1;strokeColor=none;fillColor=none;spacing=5;spacingTop=-20;whiteSpace=wrap;overflow=hidden;rounded=0;" parent="oIq1Fcmr9-6_nXg10YBY-98" vertex="1">
          <mxGeometry width="190" height="40" as="geometry" />
        </mxCell>
        <mxCell id="oIq1Fcmr9-6_nXg10YBY-100" value="" style="ellipse;whiteSpace=wrap;html=1;aspect=fixed;fillColor=#000000;" parent="oIq1Fcmr9-6_nXg10YBY-98" vertex="1">
          <mxGeometry x="20" y="130.0000000000001" width="20" height="20" as="geometry" />
        </mxCell>
        <mxCell id="oIq1Fcmr9-6_nXg10YBY-101" value="materiál &lt;br&gt;pripravený" style="rounded=1;whiteSpace=wrap;html=1;labelBackgroundColor=none;fillColor=#dae8fc;strokeColor=#6c8ebf;" parent="oIq1Fcmr9-6_nXg10YBY-98" vertex="1">
          <mxGeometry x="140" y="120" width="110" height="40" as="geometry" />
        </mxCell>
        <mxCell id="oIq1Fcmr9-6_nXg10YBY-102" style="edgeStyle=orthogonalEdgeStyle;rounded=0;orthogonalLoop=1;jettySize=auto;html=1;exitX=1;exitY=0.5;exitDx=0;exitDy=0;entryX=0;entryY=0.5;entryDx=0;entryDy=0;labelBackgroundColor=#FFFFFF;" parent="oIq1Fcmr9-6_nXg10YBY-98" source="oIq1Fcmr9-6_nXg10YBY-100" target="oIq1Fcmr9-6_nXg10YBY-101" edge="1">
          <mxGeometry relative="1" as="geometry" />
        </mxCell>
        <mxCell id="oIq1Fcmr9-6_nXg10YBY-104" style="edgeStyle=orthogonalEdgeStyle;rounded=0;orthogonalLoop=1;jettySize=auto;html=1;exitX=1;exitY=0.5;exitDx=0;exitDy=0;entryX=0;entryY=0.5;entryDx=0;entryDy=0;labelBackgroundColor=#FFFFFF;" parent="oIq1Fcmr9-6_nXg10YBY-98" edge="1">
          <mxGeometry relative="1" as="geometry">
            <mxPoint x="250" y="139.7100000000001" as="sourcePoint" />
            <mxPoint x="350" y="139.70999999999998" as="targetPoint" />
          </mxGeometry>
        </mxCell>
        <mxCell id="oIq1Fcmr9-6_nXg10YBY-106" value="nábytok vyrábaný" style="rounded=1;whiteSpace=wrap;html=1;labelBackgroundColor=none;fillColor=#dae8fc;strokeColor=#6c8ebf;" parent="oIq1Fcmr9-6_nXg10YBY-98" vertex="1">
          <mxGeometry x="350" y="120" width="110" height="40" as="geometry" />
        </mxCell>
        <mxCell id="oIq1Fcmr9-6_nXg10YBY-107" style="edgeStyle=orthogonalEdgeStyle;rounded=0;orthogonalLoop=1;jettySize=auto;html=1;exitX=1;exitY=0.5;exitDx=0;exitDy=0;entryX=0;entryY=0.5;entryDx=0;entryDy=0;labelBackgroundColor=#FFFFFF;" parent="oIq1Fcmr9-6_nXg10YBY-98" edge="1">
          <mxGeometry relative="1" as="geometry">
            <mxPoint x="460" y="139.50000000000006" as="sourcePoint" />
            <mxPoint x="560" y="139.50000000000006" as="targetPoint" />
          </mxGeometry>
        </mxCell>
        <mxCell id="oIq1Fcmr9-6_nXg10YBY-108" value="&lt;span style=&quot;font-weight: normal;&quot;&gt;nábytok vyrobený,&lt;br&gt;čakajúci na kontrolu kvality&lt;/span&gt;" style="rounded=1;whiteSpace=wrap;html=1;labelBackgroundColor=none;fillColor=#dae8fc;strokeColor=#6c8ebf;fontStyle=1" parent="oIq1Fcmr9-6_nXg10YBY-98" vertex="1">
          <mxGeometry x="560" y="120" width="110" height="40" as="geometry" />
        </mxCell>
        <mxCell id="oIq1Fcmr9-6_nXg10YBY-109" style="edgeStyle=orthogonalEdgeStyle;rounded=0;orthogonalLoop=1;jettySize=auto;html=1;exitX=1;exitY=0.5;exitDx=0;exitDy=0;entryX=0;entryY=0.5;entryDx=0;entryDy=0;labelBackgroundColor=#FFFFFF;" parent="oIq1Fcmr9-6_nXg10YBY-98" edge="1">
          <mxGeometry relative="1" as="geometry">
            <mxPoint x="670" y="139.5" as="sourcePoint" />
            <mxPoint x="770" y="139.5" as="targetPoint" />
          </mxGeometry>
        </mxCell>
        <mxCell id="F-Ds0-RrFE4fpmCMTDMh-23" value="nábytok &lt;br&gt;vyrobený" style="rounded=1;whiteSpace=wrap;html=1;labelBackgroundColor=none;fillColor=#dae8fc;strokeColor=#6c8ebf;" parent="oIq1Fcmr9-6_nXg10YBY-98" vertex="1">
          <mxGeometry x="770" y="120" width="110" height="40" as="geometry" />
        </mxCell>
        <mxCell id="F-Ds0-RrFE4fpmCMTDMh-17" value="" style="group" parent="oIq1Fcmr9-6_nXg10YBY-98" vertex="1" connectable="0">
          <mxGeometry x="815" y="190" width="20" height="20" as="geometry" />
        </mxCell>
        <mxCell id="F-Ds0-RrFE4fpmCMTDMh-18" value="" style="ellipse;whiteSpace=wrap;html=1;aspect=fixed;" parent="F-Ds0-RrFE4fpmCMTDMh-17" vertex="1">
          <mxGeometry width="20" height="20" as="geometry" />
        </mxCell>
        <mxCell id="F-Ds0-RrFE4fpmCMTDMh-19" value="" style="ellipse;whiteSpace=wrap;html=1;aspect=fixed;fillColor=#000000;" parent="F-Ds0-RrFE4fpmCMTDMh-17" vertex="1">
          <mxGeometry x="5" y="5" width="10" height="10" as="geometry" />
        </mxCell>
        <mxCell id="oIq1Fcmr9-6_nXg10YBY-116" value="" style="group" parent="1" vertex="1" connectable="0">
          <mxGeometry x="160" y="1220" width="880" height="440" as="geometry" />
        </mxCell>
        <mxCell id="oIq1Fcmr9-6_nXg10YBY-117" value="&lt;h1&gt;Reklamácia&lt;/h1&gt;" style="text;html=1;strokeColor=none;fillColor=none;spacing=5;spacingTop=-20;whiteSpace=wrap;overflow=hidden;rounded=0;" parent="oIq1Fcmr9-6_nXg10YBY-116" vertex="1">
          <mxGeometry width="250" height="40" as="geometry" />
        </mxCell>
        <mxCell id="oIq1Fcmr9-6_nXg10YBY-118" value="" style="ellipse;whiteSpace=wrap;html=1;aspect=fixed;fillColor=#000000;" parent="oIq1Fcmr9-6_nXg10YBY-116" vertex="1">
          <mxGeometry x="20" y="130.0000000000001" width="20" height="20" as="geometry" />
        </mxCell>
        <mxCell id="oIq1Fcmr9-6_nXg10YBY-119" value="navrhnutý" style="rounded=1;whiteSpace=wrap;html=1;labelBackgroundColor=none;fillColor=#dae8fc;strokeColor=#6c8ebf;" parent="oIq1Fcmr9-6_nXg10YBY-116" vertex="1">
          <mxGeometry x="140" y="120" width="110" height="40" as="geometry" />
        </mxCell>
        <mxCell id="oIq1Fcmr9-6_nXg10YBY-120" style="edgeStyle=orthogonalEdgeStyle;rounded=0;orthogonalLoop=1;jettySize=auto;html=1;exitX=1;exitY=0.5;exitDx=0;exitDy=0;entryX=0;entryY=0.5;entryDx=0;entryDy=0;labelBackgroundColor=#FFFFFF;" parent="oIq1Fcmr9-6_nXg10YBY-116" source="oIq1Fcmr9-6_nXg10YBY-118" target="oIq1Fcmr9-6_nXg10YBY-119" edge="1">
          <mxGeometry relative="1" as="geometry" />
        </mxCell>
        <mxCell id="oIq1Fcmr9-6_nXg10YBY-121" value="potreba &lt;br&gt;návrhu" style="edgeLabel;html=1;align=center;verticalAlign=middle;resizable=0;points=[];fontColor=default;" parent="oIq1Fcmr9-6_nXg10YBY-120" vertex="1" connectable="0">
          <mxGeometry x="-0.38" y="-1" relative="1" as="geometry">
            <mxPoint x="9" y="-1" as="offset" />
          </mxGeometry>
        </mxCell>
        <mxCell id="oIq1Fcmr9-6_nXg10YBY-122" style="edgeStyle=orthogonalEdgeStyle;rounded=0;orthogonalLoop=1;jettySize=auto;html=1;exitX=1;exitY=0.5;exitDx=0;exitDy=0;entryX=0;entryY=0.5;entryDx=0;entryDy=0;labelBackgroundColor=#FFFFFF;" parent="oIq1Fcmr9-6_nXg10YBY-116" edge="1">
          <mxGeometry relative="1" as="geometry">
            <mxPoint x="250" y="139.7100000000001" as="sourcePoint" />
            <mxPoint x="350" y="139.70999999999998" as="targetPoint" />
          </mxGeometry>
        </mxCell>
        <mxCell id="oIq1Fcmr9-6_nXg10YBY-123" value="Text" style="edgeLabel;html=1;align=center;verticalAlign=middle;resizable=0;points=[];fontColor=default;" parent="oIq1Fcmr9-6_nXg10YBY-122" vertex="1" connectable="0">
          <mxGeometry x="0.0086" y="2" relative="1" as="geometry">
            <mxPoint as="offset" />
          </mxGeometry>
        </mxCell>
        <mxCell id="oIq1Fcmr9-6_nXg10YBY-124" value="skontrolované&lt;br&gt;požiadavky" style="rounded=1;whiteSpace=wrap;html=1;labelBackgroundColor=none;fillColor=#dae8fc;strokeColor=#6c8ebf;" parent="oIq1Fcmr9-6_nXg10YBY-116" vertex="1">
          <mxGeometry x="350" y="120" width="110" height="40" as="geometry" />
        </mxCell>
        <mxCell id="oIq1Fcmr9-6_nXg10YBY-125" style="edgeStyle=orthogonalEdgeStyle;rounded=0;orthogonalLoop=1;jettySize=auto;html=1;exitX=1;exitY=0.5;exitDx=0;exitDy=0;entryX=0;entryY=0.5;entryDx=0;entryDy=0;labelBackgroundColor=#FFFFFF;" parent="oIq1Fcmr9-6_nXg10YBY-116" edge="1">
          <mxGeometry relative="1" as="geometry">
            <mxPoint x="460" y="139.50000000000006" as="sourcePoint" />
            <mxPoint x="560" y="139.50000000000006" as="targetPoint" />
          </mxGeometry>
        </mxCell>
        <mxCell id="oIq1Fcmr9-6_nXg10YBY-126" value="materiál dovezený&lt;br&gt;skontrolované požiadavky" style="rounded=1;whiteSpace=wrap;html=1;labelBackgroundColor=none;fillColor=#dae8fc;strokeColor=#6c8ebf;" parent="oIq1Fcmr9-6_nXg10YBY-116" vertex="1">
          <mxGeometry x="560" y="120" width="110" height="40" as="geometry" />
        </mxCell>
        <mxCell id="oIq1Fcmr9-6_nXg10YBY-127" style="edgeStyle=orthogonalEdgeStyle;rounded=0;orthogonalLoop=1;jettySize=auto;html=1;exitX=1;exitY=0.5;exitDx=0;exitDy=0;entryX=0;entryY=0.5;entryDx=0;entryDy=0;labelBackgroundColor=#FFFFFF;" parent="oIq1Fcmr9-6_nXg10YBY-116" edge="1">
          <mxGeometry relative="1" as="geometry">
            <mxPoint x="670" y="139.5" as="sourcePoint" />
            <mxPoint x="770" y="139.5" as="targetPoint" />
          </mxGeometry>
        </mxCell>
        <mxCell id="oIq1Fcmr9-6_nXg10YBY-128" value="navrhnutý" style="rounded=1;whiteSpace=wrap;html=1;labelBackgroundColor=none;fillColor=#dae8fc;strokeColor=#6c8ebf;" parent="oIq1Fcmr9-6_nXg10YBY-116" vertex="1">
          <mxGeometry x="770" y="120" width="110" height="40" as="geometry" />
        </mxCell>
        <mxCell id="oIq1Fcmr9-6_nXg10YBY-129" value="otestovaný" style="rounded=1;whiteSpace=wrap;html=1;labelBackgroundColor=none;fillColor=#dae8fc;strokeColor=#6c8ebf;" parent="oIq1Fcmr9-6_nXg10YBY-116" vertex="1">
          <mxGeometry x="770" y="220" width="110" height="40" as="geometry" />
        </mxCell>
        <mxCell id="oIq1Fcmr9-6_nXg10YBY-130" style="edgeStyle=orthogonalEdgeStyle;rounded=0;orthogonalLoop=1;jettySize=auto;html=1;exitX=0.5;exitY=1;exitDx=0;exitDy=0;entryX=0.5;entryY=0;entryDx=0;entryDy=0;labelBackgroundColor=#FFFFFF;" parent="oIq1Fcmr9-6_nXg10YBY-116" source="oIq1Fcmr9-6_nXg10YBY-128" target="oIq1Fcmr9-6_nXg10YBY-129" edge="1">
          <mxGeometry relative="1" as="geometry" />
        </mxCell>
        <mxCell id="oIq1Fcmr9-6_nXg10YBY-131" value="fdsgsdgsdgsdghasd" style="edgeStyle=orthogonalEdgeStyle;rounded=0;orthogonalLoop=1;jettySize=auto;html=1;exitX=0.5;exitY=1;exitDx=0;exitDy=0;labelBackgroundColor=#FFFFFF;entryX=0.5;entryY=0;entryDx=0;entryDy=0;" parent="oIq1Fcmr9-6_nXg10YBY-116" source="oIq1Fcmr9-6_nXg10YBY-132" edge="1">
          <mxGeometry relative="1" as="geometry">
            <mxPoint x="826" y="440" as="targetPoint" />
          </mxGeometry>
        </mxCell>
        <mxCell id="oIq1Fcmr9-6_nXg10YBY-132" value="k§p" style="rounded=1;whiteSpace=wrap;html=1;labelBackgroundColor=none;fillColor=#dae8fc;strokeColor=#6c8ebf;" parent="oIq1Fcmr9-6_nXg10YBY-116" vertex="1">
          <mxGeometry x="770" y="320" width="110" height="40" as="geometry" />
        </mxCell>
        <mxCell id="oIq1Fcmr9-6_nXg10YBY-133" style="edgeStyle=orthogonalEdgeStyle;rounded=0;orthogonalLoop=1;jettySize=auto;html=1;exitX=0.5;exitY=1;exitDx=0;exitDy=0;entryX=0.5;entryY=0;entryDx=0;entryDy=0;labelBackgroundColor=#FFFFFF;" parent="oIq1Fcmr9-6_nXg10YBY-116" source="oIq1Fcmr9-6_nXg10YBY-129" target="oIq1Fcmr9-6_nXg10YBY-132" edge="1">
          <mxGeometry relative="1" as="geometry" />
        </mxCell>
        <mxCell id="oIq1Fcmr9-6_nXg10YBY-134" value="" style="group" parent="1" vertex="1" connectable="0">
          <mxGeometry x="180" y="-1390" width="880" height="360" as="geometry" />
        </mxCell>
        <mxCell id="oIq1Fcmr9-6_nXg10YBY-135" value="&lt;h1&gt;Dizajn nábytku&lt;/h1&gt;" style="text;html=1;strokeColor=none;fillColor=none;spacing=5;spacingTop=-20;whiteSpace=wrap;overflow=hidden;rounded=0;" parent="oIq1Fcmr9-6_nXg10YBY-134" vertex="1">
          <mxGeometry width="190" height="32.72727272727273" as="geometry" />
        </mxCell>
        <mxCell id="oIq1Fcmr9-6_nXg10YBY-136" value="" style="ellipse;whiteSpace=wrap;html=1;aspect=fixed;fillColor=#000000;" parent="oIq1Fcmr9-6_nXg10YBY-134" vertex="1">
          <mxGeometry x="20" y="106.36363636363646" width="16.363636363636363" height="16.363636363636363" as="geometry" />
        </mxCell>
        <mxCell id="oIq1Fcmr9-6_nXg10YBY-137" value="&lt;font style=&quot;font-size: 11px;&quot;&gt;nezistené &lt;br&gt;&lt;div style=&quot;text-align: justify;&quot;&gt;&lt;span style=&quot;background-color: initial;&quot;&gt;zákaznícke&lt;/span&gt;&lt;/div&gt;požiadavky&lt;/font&gt;" style="rounded=1;whiteSpace=wrap;html=1;labelBackgroundColor=none;fillColor=#dae8fc;strokeColor=#6c8ebf;" parent="oIq1Fcmr9-6_nXg10YBY-134" vertex="1">
          <mxGeometry x="140" y="93.64" width="110" height="41.82" as="geometry" />
        </mxCell>
        <mxCell id="oIq1Fcmr9-6_nXg10YBY-138" value="potreba&lt;br&gt;rozširovať&amp;nbsp;&lt;br&gt;sortiment" style="edgeStyle=orthogonalEdgeStyle;rounded=0;orthogonalLoop=1;jettySize=auto;html=1;exitX=1;exitY=0.5;exitDx=0;exitDy=0;entryX=0;entryY=0.5;entryDx=0;entryDy=0;labelBackgroundColor=#FFFFFF;" parent="oIq1Fcmr9-6_nXg10YBY-134" source="oIq1Fcmr9-6_nXg10YBY-136" target="oIq1Fcmr9-6_nXg10YBY-137" edge="1">
          <mxGeometry relative="1" as="geometry" />
        </mxCell>
        <mxCell id="oIq1Fcmr9-6_nXg10YBY-140" value="" style="edgeStyle=orthogonalEdgeStyle;rounded=0;orthogonalLoop=1;jettySize=auto;html=1;exitX=1;exitY=0.5;exitDx=0;exitDy=0;entryX=0;entryY=0.5;entryDx=0;entryDy=0;labelBackgroundColor=#FFFFFF;" parent="oIq1Fcmr9-6_nXg10YBY-134" edge="1">
          <mxGeometry relative="1" as="geometry">
            <mxPoint x="250" y="114.30818181818191" as="sourcePoint" />
            <mxPoint x="350" y="114.30818181818181" as="targetPoint" />
          </mxGeometry>
        </mxCell>
        <mxCell id="oIq1Fcmr9-6_nXg10YBY-142" value="&lt;font style=&quot;font-size: 10px;&quot;&gt;zistené &lt;br&gt;zákaznícke&lt;br&gt;požiadavky&lt;/font&gt;" style="rounded=1;whiteSpace=wrap;html=1;labelBackgroundColor=none;fillColor=#dae8fc;strokeColor=#6c8ebf;" parent="oIq1Fcmr9-6_nXg10YBY-134" vertex="1">
          <mxGeometry x="350" y="98.18" width="110" height="41.82" as="geometry" />
        </mxCell>
        <mxCell id="oIq1Fcmr9-6_nXg10YBY-143" style="edgeStyle=orthogonalEdgeStyle;rounded=0;orthogonalLoop=1;jettySize=auto;html=1;exitX=1;exitY=0.5;exitDx=0;exitDy=0;entryX=0;entryY=0.5;entryDx=0;entryDy=0;labelBackgroundColor=#FFFFFF;" parent="oIq1Fcmr9-6_nXg10YBY-134" edge="1">
          <mxGeometry relative="1" as="geometry">
            <mxPoint x="460" y="114.13636363636368" as="sourcePoint" />
            <mxPoint x="560" y="114.13636363636368" as="targetPoint" />
          </mxGeometry>
        </mxCell>
        <mxCell id="oIq1Fcmr9-6_nXg10YBY-144" value="koncept &lt;br&gt;hotový" style="rounded=1;whiteSpace=wrap;html=1;labelBackgroundColor=none;fillColor=#dae8fc;strokeColor=#6c8ebf;" parent="oIq1Fcmr9-6_nXg10YBY-134" vertex="1">
          <mxGeometry x="560" y="98.18181818181819" width="110" height="32.72727272727273" as="geometry" />
        </mxCell>
        <mxCell id="oIq1Fcmr9-6_nXg10YBY-145" style="edgeStyle=orthogonalEdgeStyle;rounded=0;orthogonalLoop=1;jettySize=auto;html=1;exitX=1;exitY=0.5;exitDx=0;exitDy=0;entryX=0;entryY=0.5;entryDx=0;entryDy=0;labelBackgroundColor=#FFFFFF;" parent="oIq1Fcmr9-6_nXg10YBY-134" edge="1">
          <mxGeometry relative="1" as="geometry">
            <mxPoint x="670" y="114.13636363636364" as="sourcePoint" />
            <mxPoint x="770" y="114.13636363636364" as="targetPoint" />
          </mxGeometry>
        </mxCell>
        <mxCell id="oIq1Fcmr9-6_nXg10YBY-146" value="koncept overený&lt;br&gt;QA" style="rounded=1;whiteSpace=wrap;html=1;labelBackgroundColor=none;fillColor=#dae8fc;strokeColor=#6c8ebf;" parent="oIq1Fcmr9-6_nXg10YBY-134" vertex="1">
          <mxGeometry x="770" y="98.18181818181819" width="110" height="32.72727272727273" as="geometry" />
        </mxCell>
        <mxCell id="F-Ds0-RrFE4fpmCMTDMh-12" style="edgeStyle=orthogonalEdgeStyle;rounded=0;orthogonalLoop=1;jettySize=auto;html=1;exitX=0;exitY=0.5;exitDx=0;exitDy=0;entryX=1;entryY=0.5;entryDx=0;entryDy=0;" parent="oIq1Fcmr9-6_nXg10YBY-134" source="oIq1Fcmr9-6_nXg10YBY-147" target="oIq1Fcmr9-6_nXg10YBY-150" edge="1">
          <mxGeometry relative="1" as="geometry">
            <mxPoint x="825" y="261.8181818181818" as="targetPoint" />
          </mxGeometry>
        </mxCell>
        <mxCell id="oIq1Fcmr9-6_nXg10YBY-147" value="zhotovený prototyp" style="rounded=1;whiteSpace=wrap;html=1;labelBackgroundColor=none;fillColor=#dae8fc;strokeColor=#6c8ebf;" parent="oIq1Fcmr9-6_nXg10YBY-134" vertex="1">
          <mxGeometry x="770" y="180" width="110" height="32.72727272727273" as="geometry" />
        </mxCell>
        <mxCell id="oIq1Fcmr9-6_nXg10YBY-148" style="edgeStyle=orthogonalEdgeStyle;rounded=0;orthogonalLoop=1;jettySize=auto;html=1;exitX=0.5;exitY=1;exitDx=0;exitDy=0;entryX=0.5;entryY=0;entryDx=0;entryDy=0;labelBackgroundColor=#FFFFFF;" parent="oIq1Fcmr9-6_nXg10YBY-134" source="oIq1Fcmr9-6_nXg10YBY-146" target="oIq1Fcmr9-6_nXg10YBY-147" edge="1">
          <mxGeometry relative="1" as="geometry" />
        </mxCell>
        <mxCell id="oIq1Fcmr9-6_nXg10YBY-149" value="" style="edgeStyle=orthogonalEdgeStyle;rounded=0;orthogonalLoop=1;jettySize=auto;html=1;exitX=0;exitY=0.5;exitDx=0;exitDy=0;labelBackgroundColor=#FFFFFF;entryX=1;entryY=0.5;entryDx=0;entryDy=0;" parent="oIq1Fcmr9-6_nXg10YBY-134" source="oIq1Fcmr9-6_nXg10YBY-150" target="F-Ds0-RrFE4fpmCMTDMh-2" edge="1">
          <mxGeometry relative="1" as="geometry">
            <mxPoint x="700" y="278.1818181818182" as="targetPoint" />
          </mxGeometry>
        </mxCell>
        <mxCell id="oIq1Fcmr9-6_nXg10YBY-150" value="prototyp overený&lt;br&gt;QA" style="rounded=1;whiteSpace=wrap;html=1;labelBackgroundColor=none;fillColor=#dae8fc;strokeColor=#6c8ebf;" parent="oIq1Fcmr9-6_nXg10YBY-134" vertex="1">
          <mxGeometry x="560" y="180" width="110" height="32.72727272727273" as="geometry" />
        </mxCell>
        <mxCell id="F-Ds0-RrFE4fpmCMTDMh-2" value="návrh zaradený do ponuky" style="rounded=1;whiteSpace=wrap;html=1;labelBackgroundColor=none;fillColor=#dae8fc;strokeColor=#6c8ebf;" parent="oIq1Fcmr9-6_nXg10YBY-134" vertex="1">
          <mxGeometry x="350" y="180" width="110" height="32.72727272727273" as="geometry" />
        </mxCell>
        <mxCell id="F-Ds0-RrFE4fpmCMTDMh-6" style="edgeStyle=orthogonalEdgeStyle;rounded=0;orthogonalLoop=1;jettySize=auto;html=1;exitX=0;exitY=0.5;exitDx=0;exitDy=0;entryX=1;entryY=0.5;entryDx=0;entryDy=0;" parent="oIq1Fcmr9-6_nXg10YBY-134" source="F-Ds0-RrFE4fpmCMTDMh-2" edge="1">
          <mxGeometry relative="1" as="geometry">
            <mxPoint x="206.36363636362728" y="196.3636363636365" as="targetPoint" />
          </mxGeometry>
        </mxCell>
        <mxCell id="F-Ds0-RrFE4fpmCMTDMh-104" value="" style="group;fontSize=10;" parent="oIq1Fcmr9-6_nXg10YBY-134" vertex="1" connectable="0">
          <mxGeometry x="185" y="186.36" width="20" height="20" as="geometry" />
        </mxCell>
        <mxCell id="F-Ds0-RrFE4fpmCMTDMh-105" value="" style="ellipse;whiteSpace=wrap;html=1;aspect=fixed;fontSize=10;" parent="F-Ds0-RrFE4fpmCMTDMh-104" vertex="1">
          <mxGeometry width="20" height="20" as="geometry" />
        </mxCell>
        <mxCell id="F-Ds0-RrFE4fpmCMTDMh-106" value="" style="ellipse;whiteSpace=wrap;html=1;aspect=fixed;fillColor=#000000;fontSize=10;" parent="F-Ds0-RrFE4fpmCMTDMh-104" vertex="1">
          <mxGeometry x="5" y="5" width="10" height="10" as="geometry" />
        </mxCell>
        <mxCell id="oIq1Fcmr9-6_nXg10YBY-152" value="" style="group" parent="1" vertex="1" connectable="0">
          <mxGeometry x="160" y="1770" width="880" height="440" as="geometry" />
        </mxCell>
        <mxCell id="oIq1Fcmr9-6_nXg10YBY-153" value="&lt;h1&gt;Nákup materiálu&lt;/h1&gt;" style="text;html=1;strokeColor=none;fillColor=none;spacing=5;spacingTop=-20;whiteSpace=wrap;overflow=hidden;rounded=0;" parent="oIq1Fcmr9-6_nXg10YBY-152" vertex="1">
          <mxGeometry width="230" height="40" as="geometry" />
        </mxCell>
        <mxCell id="oIq1Fcmr9-6_nXg10YBY-154" value="" style="ellipse;whiteSpace=wrap;html=1;aspect=fixed;fillColor=#000000;" parent="oIq1Fcmr9-6_nXg10YBY-152" vertex="1">
          <mxGeometry x="20" y="130.0000000000001" width="20" height="20" as="geometry" />
        </mxCell>
        <mxCell id="oIq1Fcmr9-6_nXg10YBY-155" value="navrhnutý" style="rounded=1;whiteSpace=wrap;html=1;labelBackgroundColor=none;fillColor=#dae8fc;strokeColor=#6c8ebf;" parent="oIq1Fcmr9-6_nXg10YBY-152" vertex="1">
          <mxGeometry x="140" y="120" width="110" height="40" as="geometry" />
        </mxCell>
        <mxCell id="oIq1Fcmr9-6_nXg10YBY-156" style="edgeStyle=orthogonalEdgeStyle;rounded=0;orthogonalLoop=1;jettySize=auto;html=1;exitX=1;exitY=0.5;exitDx=0;exitDy=0;entryX=0;entryY=0.5;entryDx=0;entryDy=0;labelBackgroundColor=#FFFFFF;" parent="oIq1Fcmr9-6_nXg10YBY-152" source="oIq1Fcmr9-6_nXg10YBY-154" target="oIq1Fcmr9-6_nXg10YBY-155" edge="1">
          <mxGeometry relative="1" as="geometry" />
        </mxCell>
        <mxCell id="oIq1Fcmr9-6_nXg10YBY-157" value="potreba &lt;br&gt;návrhu" style="edgeLabel;html=1;align=center;verticalAlign=middle;resizable=0;points=[];fontColor=default;" parent="oIq1Fcmr9-6_nXg10YBY-156" vertex="1" connectable="0">
          <mxGeometry x="-0.38" y="-1" relative="1" as="geometry">
            <mxPoint x="9" y="-1" as="offset" />
          </mxGeometry>
        </mxCell>
        <mxCell id="oIq1Fcmr9-6_nXg10YBY-158" style="edgeStyle=orthogonalEdgeStyle;rounded=0;orthogonalLoop=1;jettySize=auto;html=1;exitX=1;exitY=0.5;exitDx=0;exitDy=0;entryX=0;entryY=0.5;entryDx=0;entryDy=0;labelBackgroundColor=#FFFFFF;" parent="oIq1Fcmr9-6_nXg10YBY-152" edge="1">
          <mxGeometry relative="1" as="geometry">
            <mxPoint x="250" y="139.7100000000001" as="sourcePoint" />
            <mxPoint x="350" y="139.70999999999998" as="targetPoint" />
          </mxGeometry>
        </mxCell>
        <mxCell id="oIq1Fcmr9-6_nXg10YBY-159" value="Text" style="edgeLabel;html=1;align=center;verticalAlign=middle;resizable=0;points=[];fontColor=default;" parent="oIq1Fcmr9-6_nXg10YBY-158" vertex="1" connectable="0">
          <mxGeometry x="0.0086" y="2" relative="1" as="geometry">
            <mxPoint as="offset" />
          </mxGeometry>
        </mxCell>
        <mxCell id="oIq1Fcmr9-6_nXg10YBY-160" value="skontrolované&lt;br&gt;požiadavky" style="rounded=1;whiteSpace=wrap;html=1;labelBackgroundColor=none;fillColor=#dae8fc;strokeColor=#6c8ebf;" parent="oIq1Fcmr9-6_nXg10YBY-152" vertex="1">
          <mxGeometry x="350" y="120" width="110" height="40" as="geometry" />
        </mxCell>
        <mxCell id="oIq1Fcmr9-6_nXg10YBY-161" style="edgeStyle=orthogonalEdgeStyle;rounded=0;orthogonalLoop=1;jettySize=auto;html=1;exitX=1;exitY=0.5;exitDx=0;exitDy=0;entryX=0;entryY=0.5;entryDx=0;entryDy=0;labelBackgroundColor=#FFFFFF;" parent="oIq1Fcmr9-6_nXg10YBY-152" edge="1">
          <mxGeometry relative="1" as="geometry">
            <mxPoint x="460" y="139.50000000000006" as="sourcePoint" />
            <mxPoint x="560" y="139.50000000000006" as="targetPoint" />
          </mxGeometry>
        </mxCell>
        <mxCell id="oIq1Fcmr9-6_nXg10YBY-162" value="materiál dovezený&lt;br&gt;skontrolované požiadavky" style="rounded=1;whiteSpace=wrap;html=1;labelBackgroundColor=none;fillColor=#dae8fc;strokeColor=#6c8ebf;" parent="oIq1Fcmr9-6_nXg10YBY-152" vertex="1">
          <mxGeometry x="560" y="120" width="110" height="40" as="geometry" />
        </mxCell>
        <mxCell id="oIq1Fcmr9-6_nXg10YBY-163" style="edgeStyle=orthogonalEdgeStyle;rounded=0;orthogonalLoop=1;jettySize=auto;html=1;exitX=1;exitY=0.5;exitDx=0;exitDy=0;entryX=0;entryY=0.5;entryDx=0;entryDy=0;labelBackgroundColor=#FFFFFF;" parent="oIq1Fcmr9-6_nXg10YBY-152" edge="1">
          <mxGeometry relative="1" as="geometry">
            <mxPoint x="670" y="139.5" as="sourcePoint" />
            <mxPoint x="770" y="139.5" as="targetPoint" />
          </mxGeometry>
        </mxCell>
        <mxCell id="oIq1Fcmr9-6_nXg10YBY-164" value="navrhnutý" style="rounded=1;whiteSpace=wrap;html=1;labelBackgroundColor=none;fillColor=#dae8fc;strokeColor=#6c8ebf;" parent="oIq1Fcmr9-6_nXg10YBY-152" vertex="1">
          <mxGeometry x="770" y="120" width="110" height="40" as="geometry" />
        </mxCell>
        <mxCell id="oIq1Fcmr9-6_nXg10YBY-165" value="otestovaný" style="rounded=1;whiteSpace=wrap;html=1;labelBackgroundColor=none;fillColor=#dae8fc;strokeColor=#6c8ebf;" parent="oIq1Fcmr9-6_nXg10YBY-152" vertex="1">
          <mxGeometry x="770" y="220" width="110" height="40" as="geometry" />
        </mxCell>
        <mxCell id="oIq1Fcmr9-6_nXg10YBY-166" style="edgeStyle=orthogonalEdgeStyle;rounded=0;orthogonalLoop=1;jettySize=auto;html=1;exitX=0.5;exitY=1;exitDx=0;exitDy=0;entryX=0.5;entryY=0;entryDx=0;entryDy=0;labelBackgroundColor=#FFFFFF;" parent="oIq1Fcmr9-6_nXg10YBY-152" source="oIq1Fcmr9-6_nXg10YBY-164" target="oIq1Fcmr9-6_nXg10YBY-165" edge="1">
          <mxGeometry relative="1" as="geometry" />
        </mxCell>
        <mxCell id="oIq1Fcmr9-6_nXg10YBY-167" value="fdsgsdgsdgsdghasd" style="edgeStyle=orthogonalEdgeStyle;rounded=0;orthogonalLoop=1;jettySize=auto;html=1;exitX=0.5;exitY=1;exitDx=0;exitDy=0;labelBackgroundColor=#FFFFFF;entryX=0.5;entryY=0;entryDx=0;entryDy=0;" parent="oIq1Fcmr9-6_nXg10YBY-152" source="oIq1Fcmr9-6_nXg10YBY-168" edge="1">
          <mxGeometry relative="1" as="geometry">
            <mxPoint x="826" y="440" as="targetPoint" />
          </mxGeometry>
        </mxCell>
        <mxCell id="oIq1Fcmr9-6_nXg10YBY-168" value="k§p" style="rounded=1;whiteSpace=wrap;html=1;labelBackgroundColor=none;fillColor=#dae8fc;strokeColor=#6c8ebf;" parent="oIq1Fcmr9-6_nXg10YBY-152" vertex="1">
          <mxGeometry x="770" y="320" width="110" height="40" as="geometry" />
        </mxCell>
        <mxCell id="oIq1Fcmr9-6_nXg10YBY-169" style="edgeStyle=orthogonalEdgeStyle;rounded=0;orthogonalLoop=1;jettySize=auto;html=1;exitX=0.5;exitY=1;exitDx=0;exitDy=0;entryX=0.5;entryY=0;entryDx=0;entryDy=0;labelBackgroundColor=#FFFFFF;" parent="oIq1Fcmr9-6_nXg10YBY-152" source="oIq1Fcmr9-6_nXg10YBY-165" target="oIq1Fcmr9-6_nXg10YBY-168" edge="1">
          <mxGeometry relative="1" as="geometry" />
        </mxCell>
        <mxCell id="oIq1Fcmr9-6_nXg10YBY-170" value="" style="group" parent="1" vertex="1" connectable="0">
          <mxGeometry x="160" y="2280" width="880" height="440" as="geometry" />
        </mxCell>
        <mxCell id="oIq1Fcmr9-6_nXg10YBY-171" value="&lt;h1&gt;d&lt;/h1&gt;" style="text;html=1;strokeColor=none;fillColor=none;spacing=5;spacingTop=-20;whiteSpace=wrap;overflow=hidden;rounded=0;" parent="oIq1Fcmr9-6_nXg10YBY-170" vertex="1">
          <mxGeometry width="290" height="40" as="geometry" />
        </mxCell>
        <mxCell id="oIq1Fcmr9-6_nXg10YBY-172" value="" style="ellipse;whiteSpace=wrap;html=1;aspect=fixed;fillColor=#000000;" parent="oIq1Fcmr9-6_nXg10YBY-170" vertex="1">
          <mxGeometry x="20" y="130.0000000000001" width="20" height="20" as="geometry" />
        </mxCell>
        <mxCell id="oIq1Fcmr9-6_nXg10YBY-173" value="navrhnutý" style="rounded=1;whiteSpace=wrap;html=1;labelBackgroundColor=none;fillColor=#dae8fc;strokeColor=#6c8ebf;" parent="oIq1Fcmr9-6_nXg10YBY-170" vertex="1">
          <mxGeometry x="140" y="120" width="110" height="40" as="geometry" />
        </mxCell>
        <mxCell id="oIq1Fcmr9-6_nXg10YBY-174" style="edgeStyle=orthogonalEdgeStyle;rounded=0;orthogonalLoop=1;jettySize=auto;html=1;exitX=1;exitY=0.5;exitDx=0;exitDy=0;entryX=0;entryY=0.5;entryDx=0;entryDy=0;labelBackgroundColor=#FFFFFF;" parent="oIq1Fcmr9-6_nXg10YBY-170" source="oIq1Fcmr9-6_nXg10YBY-172" target="oIq1Fcmr9-6_nXg10YBY-173" edge="1">
          <mxGeometry relative="1" as="geometry" />
        </mxCell>
        <mxCell id="oIq1Fcmr9-6_nXg10YBY-175" value="potreba &lt;br&gt;návrhu" style="edgeLabel;html=1;align=center;verticalAlign=middle;resizable=0;points=[];fontColor=default;" parent="oIq1Fcmr9-6_nXg10YBY-174" vertex="1" connectable="0">
          <mxGeometry x="-0.38" y="-1" relative="1" as="geometry">
            <mxPoint x="9" y="-1" as="offset" />
          </mxGeometry>
        </mxCell>
        <mxCell id="oIq1Fcmr9-6_nXg10YBY-176" style="edgeStyle=orthogonalEdgeStyle;rounded=0;orthogonalLoop=1;jettySize=auto;html=1;exitX=1;exitY=0.5;exitDx=0;exitDy=0;entryX=0;entryY=0.5;entryDx=0;entryDy=0;labelBackgroundColor=#FFFFFF;" parent="oIq1Fcmr9-6_nXg10YBY-170" edge="1">
          <mxGeometry relative="1" as="geometry">
            <mxPoint x="250" y="139.7100000000001" as="sourcePoint" />
            <mxPoint x="350" y="139.70999999999998" as="targetPoint" />
          </mxGeometry>
        </mxCell>
        <mxCell id="oIq1Fcmr9-6_nXg10YBY-177" value="Text" style="edgeLabel;html=1;align=center;verticalAlign=middle;resizable=0;points=[];fontColor=default;" parent="oIq1Fcmr9-6_nXg10YBY-176" vertex="1" connectable="0">
          <mxGeometry x="0.0086" y="2" relative="1" as="geometry">
            <mxPoint as="offset" />
          </mxGeometry>
        </mxCell>
        <mxCell id="oIq1Fcmr9-6_nXg10YBY-178" value="skontrolované&lt;br&gt;požiadavky" style="rounded=1;whiteSpace=wrap;html=1;labelBackgroundColor=none;fillColor=#dae8fc;strokeColor=#6c8ebf;" parent="oIq1Fcmr9-6_nXg10YBY-170" vertex="1">
          <mxGeometry x="350" y="120" width="110" height="40" as="geometry" />
        </mxCell>
        <mxCell id="oIq1Fcmr9-6_nXg10YBY-179" style="edgeStyle=orthogonalEdgeStyle;rounded=0;orthogonalLoop=1;jettySize=auto;html=1;exitX=1;exitY=0.5;exitDx=0;exitDy=0;entryX=0;entryY=0.5;entryDx=0;entryDy=0;labelBackgroundColor=#FFFFFF;" parent="oIq1Fcmr9-6_nXg10YBY-170" edge="1">
          <mxGeometry relative="1" as="geometry">
            <mxPoint x="460" y="139.50000000000006" as="sourcePoint" />
            <mxPoint x="560" y="139.50000000000006" as="targetPoint" />
          </mxGeometry>
        </mxCell>
        <mxCell id="oIq1Fcmr9-6_nXg10YBY-180" value="materiál dovezený&lt;br&gt;skontrolované požiadavky" style="rounded=1;whiteSpace=wrap;html=1;labelBackgroundColor=none;fillColor=#dae8fc;strokeColor=#6c8ebf;" parent="oIq1Fcmr9-6_nXg10YBY-170" vertex="1">
          <mxGeometry x="560" y="120" width="110" height="40" as="geometry" />
        </mxCell>
        <mxCell id="oIq1Fcmr9-6_nXg10YBY-181" style="edgeStyle=orthogonalEdgeStyle;rounded=0;orthogonalLoop=1;jettySize=auto;html=1;exitX=1;exitY=0.5;exitDx=0;exitDy=0;entryX=0;entryY=0.5;entryDx=0;entryDy=0;labelBackgroundColor=#FFFFFF;" parent="oIq1Fcmr9-6_nXg10YBY-170" edge="1">
          <mxGeometry relative="1" as="geometry">
            <mxPoint x="670" y="139.5" as="sourcePoint" />
            <mxPoint x="770" y="139.5" as="targetPoint" />
          </mxGeometry>
        </mxCell>
        <mxCell id="oIq1Fcmr9-6_nXg10YBY-182" value="navrhnutý" style="rounded=1;whiteSpace=wrap;html=1;labelBackgroundColor=none;fillColor=#dae8fc;strokeColor=#6c8ebf;" parent="oIq1Fcmr9-6_nXg10YBY-170" vertex="1">
          <mxGeometry x="770" y="120" width="110" height="40" as="geometry" />
        </mxCell>
        <mxCell id="oIq1Fcmr9-6_nXg10YBY-183" value="otestovaný" style="rounded=1;whiteSpace=wrap;html=1;labelBackgroundColor=none;fillColor=#dae8fc;strokeColor=#6c8ebf;" parent="oIq1Fcmr9-6_nXg10YBY-170" vertex="1">
          <mxGeometry x="770" y="220" width="110" height="40" as="geometry" />
        </mxCell>
        <mxCell id="oIq1Fcmr9-6_nXg10YBY-184" style="edgeStyle=orthogonalEdgeStyle;rounded=0;orthogonalLoop=1;jettySize=auto;html=1;exitX=0.5;exitY=1;exitDx=0;exitDy=0;entryX=0.5;entryY=0;entryDx=0;entryDy=0;labelBackgroundColor=#FFFFFF;" parent="oIq1Fcmr9-6_nXg10YBY-170" source="oIq1Fcmr9-6_nXg10YBY-182" target="oIq1Fcmr9-6_nXg10YBY-183" edge="1">
          <mxGeometry relative="1" as="geometry" />
        </mxCell>
        <mxCell id="oIq1Fcmr9-6_nXg10YBY-185" value="fdsgsdgsdgsdghasd" style="edgeStyle=orthogonalEdgeStyle;rounded=0;orthogonalLoop=1;jettySize=auto;html=1;exitX=0.5;exitY=1;exitDx=0;exitDy=0;labelBackgroundColor=#FFFFFF;entryX=0.5;entryY=0;entryDx=0;entryDy=0;" parent="oIq1Fcmr9-6_nXg10YBY-170" source="oIq1Fcmr9-6_nXg10YBY-186" edge="1">
          <mxGeometry relative="1" as="geometry">
            <mxPoint x="826" y="440" as="targetPoint" />
          </mxGeometry>
        </mxCell>
        <mxCell id="oIq1Fcmr9-6_nXg10YBY-186" value="k§p" style="rounded=1;whiteSpace=wrap;html=1;labelBackgroundColor=none;fillColor=#dae8fc;strokeColor=#6c8ebf;" parent="oIq1Fcmr9-6_nXg10YBY-170" vertex="1">
          <mxGeometry x="770" y="320" width="110" height="40" as="geometry" />
        </mxCell>
        <mxCell id="oIq1Fcmr9-6_nXg10YBY-187" style="edgeStyle=orthogonalEdgeStyle;rounded=0;orthogonalLoop=1;jettySize=auto;html=1;exitX=0.5;exitY=1;exitDx=0;exitDy=0;entryX=0.5;entryY=0;entryDx=0;entryDy=0;labelBackgroundColor=#FFFFFF;" parent="oIq1Fcmr9-6_nXg10YBY-170" source="oIq1Fcmr9-6_nXg10YBY-183" target="oIq1Fcmr9-6_nXg10YBY-186" edge="1">
          <mxGeometry relative="1" as="geometry" />
        </mxCell>
        <mxCell id="oIq1Fcmr9-6_nXg10YBY-188" value="" style="group" parent="1" vertex="1" connectable="0">
          <mxGeometry x="160" y="2810" width="880" height="440" as="geometry" />
        </mxCell>
        <mxCell id="oIq1Fcmr9-6_nXg10YBY-189" value="&lt;h1&gt;Dovoz&lt;/h1&gt;" style="text;html=1;strokeColor=none;fillColor=none;spacing=5;spacingTop=-20;whiteSpace=wrap;overflow=hidden;rounded=0;" parent="oIq1Fcmr9-6_nXg10YBY-188" vertex="1">
          <mxGeometry width="290" height="40" as="geometry" />
        </mxCell>
        <mxCell id="oIq1Fcmr9-6_nXg10YBY-190" value="" style="ellipse;whiteSpace=wrap;html=1;aspect=fixed;fillColor=#000000;" parent="oIq1Fcmr9-6_nXg10YBY-188" vertex="1">
          <mxGeometry x="20" y="130.0000000000001" width="20" height="20" as="geometry" />
        </mxCell>
        <mxCell id="oIq1Fcmr9-6_nXg10YBY-191" value="navrhnutý" style="rounded=1;whiteSpace=wrap;html=1;labelBackgroundColor=none;fillColor=#dae8fc;strokeColor=#6c8ebf;" parent="oIq1Fcmr9-6_nXg10YBY-188" vertex="1">
          <mxGeometry x="140" y="120" width="110" height="40" as="geometry" />
        </mxCell>
        <mxCell id="oIq1Fcmr9-6_nXg10YBY-192" style="edgeStyle=orthogonalEdgeStyle;rounded=0;orthogonalLoop=1;jettySize=auto;html=1;exitX=1;exitY=0.5;exitDx=0;exitDy=0;entryX=0;entryY=0.5;entryDx=0;entryDy=0;labelBackgroundColor=#FFFFFF;" parent="oIq1Fcmr9-6_nXg10YBY-188" source="oIq1Fcmr9-6_nXg10YBY-190" target="oIq1Fcmr9-6_nXg10YBY-191" edge="1">
          <mxGeometry relative="1" as="geometry" />
        </mxCell>
        <mxCell id="oIq1Fcmr9-6_nXg10YBY-193" value="potreba &lt;br&gt;návrhu" style="edgeLabel;html=1;align=center;verticalAlign=middle;resizable=0;points=[];fontColor=default;" parent="oIq1Fcmr9-6_nXg10YBY-192" vertex="1" connectable="0">
          <mxGeometry x="-0.38" y="-1" relative="1" as="geometry">
            <mxPoint x="9" y="-1" as="offset" />
          </mxGeometry>
        </mxCell>
        <mxCell id="oIq1Fcmr9-6_nXg10YBY-194" style="edgeStyle=orthogonalEdgeStyle;rounded=0;orthogonalLoop=1;jettySize=auto;html=1;exitX=1;exitY=0.5;exitDx=0;exitDy=0;entryX=0;entryY=0.5;entryDx=0;entryDy=0;labelBackgroundColor=#FFFFFF;" parent="oIq1Fcmr9-6_nXg10YBY-188" edge="1">
          <mxGeometry relative="1" as="geometry">
            <mxPoint x="250" y="139.7100000000001" as="sourcePoint" />
            <mxPoint x="350" y="139.70999999999998" as="targetPoint" />
          </mxGeometry>
        </mxCell>
        <mxCell id="oIq1Fcmr9-6_nXg10YBY-195" value="Text" style="edgeLabel;html=1;align=center;verticalAlign=middle;resizable=0;points=[];fontColor=default;" parent="oIq1Fcmr9-6_nXg10YBY-194" vertex="1" connectable="0">
          <mxGeometry x="0.0086" y="2" relative="1" as="geometry">
            <mxPoint as="offset" />
          </mxGeometry>
        </mxCell>
        <mxCell id="oIq1Fcmr9-6_nXg10YBY-196" value="skontrolované&lt;br&gt;požiadavky" style="rounded=1;whiteSpace=wrap;html=1;labelBackgroundColor=none;fillColor=#dae8fc;strokeColor=#6c8ebf;" parent="oIq1Fcmr9-6_nXg10YBY-188" vertex="1">
          <mxGeometry x="350" y="120" width="110" height="40" as="geometry" />
        </mxCell>
        <mxCell id="oIq1Fcmr9-6_nXg10YBY-197" style="edgeStyle=orthogonalEdgeStyle;rounded=0;orthogonalLoop=1;jettySize=auto;html=1;exitX=1;exitY=0.5;exitDx=0;exitDy=0;entryX=0;entryY=0.5;entryDx=0;entryDy=0;labelBackgroundColor=#FFFFFF;" parent="oIq1Fcmr9-6_nXg10YBY-188" edge="1">
          <mxGeometry relative="1" as="geometry">
            <mxPoint x="460" y="139.50000000000006" as="sourcePoint" />
            <mxPoint x="560" y="139.50000000000006" as="targetPoint" />
          </mxGeometry>
        </mxCell>
        <mxCell id="oIq1Fcmr9-6_nXg10YBY-198" value="materiál dovezený&lt;br&gt;skontrolované požiadavky" style="rounded=1;whiteSpace=wrap;html=1;labelBackgroundColor=none;fillColor=#dae8fc;strokeColor=#6c8ebf;" parent="oIq1Fcmr9-6_nXg10YBY-188" vertex="1">
          <mxGeometry x="560" y="120" width="110" height="40" as="geometry" />
        </mxCell>
        <mxCell id="oIq1Fcmr9-6_nXg10YBY-199" style="edgeStyle=orthogonalEdgeStyle;rounded=0;orthogonalLoop=1;jettySize=auto;html=1;exitX=1;exitY=0.5;exitDx=0;exitDy=0;entryX=0;entryY=0.5;entryDx=0;entryDy=0;labelBackgroundColor=#FFFFFF;" parent="oIq1Fcmr9-6_nXg10YBY-188" edge="1">
          <mxGeometry relative="1" as="geometry">
            <mxPoint x="670" y="139.5" as="sourcePoint" />
            <mxPoint x="770" y="139.5" as="targetPoint" />
          </mxGeometry>
        </mxCell>
        <mxCell id="oIq1Fcmr9-6_nXg10YBY-200" value="navrhnutý" style="rounded=1;whiteSpace=wrap;html=1;labelBackgroundColor=none;fillColor=#dae8fc;strokeColor=#6c8ebf;" parent="oIq1Fcmr9-6_nXg10YBY-188" vertex="1">
          <mxGeometry x="770" y="120" width="110" height="40" as="geometry" />
        </mxCell>
        <mxCell id="oIq1Fcmr9-6_nXg10YBY-201" value="otestovaný" style="rounded=1;whiteSpace=wrap;html=1;labelBackgroundColor=none;fillColor=#dae8fc;strokeColor=#6c8ebf;" parent="oIq1Fcmr9-6_nXg10YBY-188" vertex="1">
          <mxGeometry x="770" y="220" width="110" height="40" as="geometry" />
        </mxCell>
        <mxCell id="oIq1Fcmr9-6_nXg10YBY-202" style="edgeStyle=orthogonalEdgeStyle;rounded=0;orthogonalLoop=1;jettySize=auto;html=1;exitX=0.5;exitY=1;exitDx=0;exitDy=0;entryX=0.5;entryY=0;entryDx=0;entryDy=0;labelBackgroundColor=#FFFFFF;" parent="oIq1Fcmr9-6_nXg10YBY-188" source="oIq1Fcmr9-6_nXg10YBY-200" target="oIq1Fcmr9-6_nXg10YBY-201" edge="1">
          <mxGeometry relative="1" as="geometry" />
        </mxCell>
        <mxCell id="oIq1Fcmr9-6_nXg10YBY-203" value="fdsgsdgsdgsdghasd" style="edgeStyle=orthogonalEdgeStyle;rounded=0;orthogonalLoop=1;jettySize=auto;html=1;exitX=0.5;exitY=1;exitDx=0;exitDy=0;labelBackgroundColor=#FFFFFF;entryX=0.5;entryY=0;entryDx=0;entryDy=0;" parent="oIq1Fcmr9-6_nXg10YBY-188" source="oIq1Fcmr9-6_nXg10YBY-204" edge="1">
          <mxGeometry relative="1" as="geometry">
            <mxPoint x="826" y="440" as="targetPoint" />
          </mxGeometry>
        </mxCell>
        <mxCell id="oIq1Fcmr9-6_nXg10YBY-204" value="k§p" style="rounded=1;whiteSpace=wrap;html=1;labelBackgroundColor=none;fillColor=#dae8fc;strokeColor=#6c8ebf;" parent="oIq1Fcmr9-6_nXg10YBY-188" vertex="1">
          <mxGeometry x="770" y="320" width="110" height="40" as="geometry" />
        </mxCell>
        <mxCell id="oIq1Fcmr9-6_nXg10YBY-205" style="edgeStyle=orthogonalEdgeStyle;rounded=0;orthogonalLoop=1;jettySize=auto;html=1;exitX=0.5;exitY=1;exitDx=0;exitDy=0;entryX=0.5;entryY=0;entryDx=0;entryDy=0;labelBackgroundColor=#FFFFFF;" parent="oIq1Fcmr9-6_nXg10YBY-188" source="oIq1Fcmr9-6_nXg10YBY-201" target="oIq1Fcmr9-6_nXg10YBY-204" edge="1">
          <mxGeometry relative="1" as="geometry" />
        </mxCell>
        <mxCell id="oIq1Fcmr9-6_nXg10YBY-206" value="" style="group" parent="1" vertex="1" connectable="0">
          <mxGeometry x="160" y="3310" width="880" height="440" as="geometry" />
        </mxCell>
        <mxCell id="oIq1Fcmr9-6_nXg10YBY-207" value="&lt;h1&gt;Servisná dokumentácia&lt;/h1&gt;" style="text;html=1;strokeColor=none;fillColor=none;spacing=5;spacingTop=-20;whiteSpace=wrap;overflow=hidden;rounded=0;" parent="oIq1Fcmr9-6_nXg10YBY-206" vertex="1">
          <mxGeometry width="290" height="40" as="geometry" />
        </mxCell>
        <mxCell id="oIq1Fcmr9-6_nXg10YBY-208" value="" style="ellipse;whiteSpace=wrap;html=1;aspect=fixed;fillColor=#000000;" parent="oIq1Fcmr9-6_nXg10YBY-206" vertex="1">
          <mxGeometry x="20" y="130.0000000000001" width="20" height="20" as="geometry" />
        </mxCell>
        <mxCell id="oIq1Fcmr9-6_nXg10YBY-209" value="začatá" style="rounded=1;whiteSpace=wrap;html=1;labelBackgroundColor=none;fillColor=#dae8fc;strokeColor=#6c8ebf;" parent="oIq1Fcmr9-6_nXg10YBY-206" vertex="1">
          <mxGeometry x="140" y="120" width="110" height="40" as="geometry" />
        </mxCell>
        <mxCell id="oIq1Fcmr9-6_nXg10YBY-210" style="edgeStyle=orthogonalEdgeStyle;rounded=0;orthogonalLoop=1;jettySize=auto;html=1;exitX=1;exitY=0.5;exitDx=0;exitDy=0;entryX=0;entryY=0.5;entryDx=0;entryDy=0;labelBackgroundColor=#FFFFFF;" parent="oIq1Fcmr9-6_nXg10YBY-206" source="oIq1Fcmr9-6_nXg10YBY-208" target="oIq1Fcmr9-6_nXg10YBY-209" edge="1">
          <mxGeometry relative="1" as="geometry" />
        </mxCell>
        <mxCell id="oIq1Fcmr9-6_nXg10YBY-211" value="potreba &lt;br&gt;návrhu" style="edgeLabel;html=1;align=center;verticalAlign=middle;resizable=0;points=[];fontColor=default;" parent="oIq1Fcmr9-6_nXg10YBY-210" vertex="1" connectable="0">
          <mxGeometry x="-0.38" y="-1" relative="1" as="geometry">
            <mxPoint x="9" y="-1" as="offset" />
          </mxGeometry>
        </mxCell>
        <mxCell id="oIq1Fcmr9-6_nXg10YBY-212" style="edgeStyle=orthogonalEdgeStyle;rounded=0;orthogonalLoop=1;jettySize=auto;html=1;exitX=1;exitY=0.5;exitDx=0;exitDy=0;entryX=0;entryY=0.5;entryDx=0;entryDy=0;labelBackgroundColor=#FFFFFF;" parent="oIq1Fcmr9-6_nXg10YBY-206" edge="1">
          <mxGeometry relative="1" as="geometry">
            <mxPoint x="250" y="139.7100000000001" as="sourcePoint" />
            <mxPoint x="350" y="139.70999999999998" as="targetPoint" />
          </mxGeometry>
        </mxCell>
        <mxCell id="oIq1Fcmr9-6_nXg10YBY-213" value="Text" style="edgeLabel;html=1;align=center;verticalAlign=middle;resizable=0;points=[];fontColor=default;" parent="oIq1Fcmr9-6_nXg10YBY-212" vertex="1" connectable="0">
          <mxGeometry x="0.0086" y="2" relative="1" as="geometry">
            <mxPoint as="offset" />
          </mxGeometry>
        </mxCell>
        <mxCell id="oIq1Fcmr9-6_nXg10YBY-214" value="napoly spravená" style="rounded=1;whiteSpace=wrap;html=1;labelBackgroundColor=none;fillColor=#dae8fc;strokeColor=#6c8ebf;" parent="oIq1Fcmr9-6_nXg10YBY-206" vertex="1">
          <mxGeometry x="350" y="120" width="110" height="40" as="geometry" />
        </mxCell>
        <mxCell id="oIq1Fcmr9-6_nXg10YBY-215" style="edgeStyle=orthogonalEdgeStyle;rounded=0;orthogonalLoop=1;jettySize=auto;html=1;exitX=1;exitY=0.5;exitDx=0;exitDy=0;entryX=0;entryY=0.5;entryDx=0;entryDy=0;labelBackgroundColor=#FFFFFF;" parent="oIq1Fcmr9-6_nXg10YBY-206" edge="1">
          <mxGeometry relative="1" as="geometry">
            <mxPoint x="460" y="139.50000000000006" as="sourcePoint" />
            <mxPoint x="560" y="139.50000000000006" as="targetPoint" />
          </mxGeometry>
        </mxCell>
        <mxCell id="oIq1Fcmr9-6_nXg10YBY-216" value="úplne spravená" style="rounded=1;whiteSpace=wrap;html=1;labelBackgroundColor=none;fillColor=#dae8fc;strokeColor=#6c8ebf;" parent="oIq1Fcmr9-6_nXg10YBY-206" vertex="1">
          <mxGeometry x="560" y="120" width="110" height="40" as="geometry" />
        </mxCell>
        <mxCell id="oIq1Fcmr9-6_nXg10YBY-217" style="edgeStyle=orthogonalEdgeStyle;rounded=0;orthogonalLoop=1;jettySize=auto;html=1;exitX=1;exitY=0.5;exitDx=0;exitDy=0;entryX=0;entryY=0.5;entryDx=0;entryDy=0;labelBackgroundColor=#FFFFFF;" parent="oIq1Fcmr9-6_nXg10YBY-206" edge="1">
          <mxGeometry relative="1" as="geometry">
            <mxPoint x="670" y="139.5" as="sourcePoint" />
            <mxPoint x="770" y="139.5" as="targetPoint" />
          </mxGeometry>
        </mxCell>
        <mxCell id="oIq1Fcmr9-6_nXg10YBY-218" value="navrhnutý" style="rounded=1;whiteSpace=wrap;html=1;labelBackgroundColor=none;fillColor=#dae8fc;strokeColor=#6c8ebf;" parent="oIq1Fcmr9-6_nXg10YBY-206" vertex="1">
          <mxGeometry x="770" y="120" width="110" height="40" as="geometry" />
        </mxCell>
        <mxCell id="oIq1Fcmr9-6_nXg10YBY-219" value="otestovaný" style="rounded=1;whiteSpace=wrap;html=1;labelBackgroundColor=none;fillColor=#dae8fc;strokeColor=#6c8ebf;" parent="oIq1Fcmr9-6_nXg10YBY-206" vertex="1">
          <mxGeometry x="770" y="220" width="110" height="40" as="geometry" />
        </mxCell>
        <mxCell id="oIq1Fcmr9-6_nXg10YBY-220" style="edgeStyle=orthogonalEdgeStyle;rounded=0;orthogonalLoop=1;jettySize=auto;html=1;exitX=0.5;exitY=1;exitDx=0;exitDy=0;entryX=0.5;entryY=0;entryDx=0;entryDy=0;labelBackgroundColor=#FFFFFF;" parent="oIq1Fcmr9-6_nXg10YBY-206" source="oIq1Fcmr9-6_nXg10YBY-218" target="oIq1Fcmr9-6_nXg10YBY-219" edge="1">
          <mxGeometry relative="1" as="geometry" />
        </mxCell>
        <mxCell id="oIq1Fcmr9-6_nXg10YBY-221" value="fdsgsdgsdgsdghasd" style="edgeStyle=orthogonalEdgeStyle;rounded=0;orthogonalLoop=1;jettySize=auto;html=1;exitX=0.5;exitY=1;exitDx=0;exitDy=0;labelBackgroundColor=#FFFFFF;entryX=0.5;entryY=0;entryDx=0;entryDy=0;" parent="oIq1Fcmr9-6_nXg10YBY-206" source="oIq1Fcmr9-6_nXg10YBY-222" edge="1">
          <mxGeometry relative="1" as="geometry">
            <mxPoint x="826" y="440" as="targetPoint" />
          </mxGeometry>
        </mxCell>
        <mxCell id="oIq1Fcmr9-6_nXg10YBY-222" value="k§p" style="rounded=1;whiteSpace=wrap;html=1;labelBackgroundColor=none;fillColor=#dae8fc;strokeColor=#6c8ebf;" parent="oIq1Fcmr9-6_nXg10YBY-206" vertex="1">
          <mxGeometry x="770" y="320" width="110" height="40" as="geometry" />
        </mxCell>
        <mxCell id="oIq1Fcmr9-6_nXg10YBY-223" style="edgeStyle=orthogonalEdgeStyle;rounded=0;orthogonalLoop=1;jettySize=auto;html=1;exitX=0.5;exitY=1;exitDx=0;exitDy=0;entryX=0.5;entryY=0;entryDx=0;entryDy=0;labelBackgroundColor=#FFFFFF;" parent="oIq1Fcmr9-6_nXg10YBY-206" source="oIq1Fcmr9-6_nXg10YBY-219" target="oIq1Fcmr9-6_nXg10YBY-222" edge="1">
          <mxGeometry relative="1" as="geometry" />
        </mxCell>
        <mxCell id="F-Ds0-RrFE4fpmCMTDMh-25" style="edgeStyle=orthogonalEdgeStyle;rounded=0;orthogonalLoop=1;jettySize=auto;html=1;exitX=0.5;exitY=1;exitDx=0;exitDy=0;" parent="1" source="F-Ds0-RrFE4fpmCMTDMh-23" edge="1">
          <mxGeometry relative="1" as="geometry">
            <mxPoint x="1005" y="-650" as="targetPoint" />
          </mxGeometry>
        </mxCell>
        <mxCell id="F-Ds0-RrFE4fpmCMTDMh-64" value="" style="group" parent="1" vertex="1" connectable="0">
          <mxGeometry x="180" y="3860" width="880" height="440" as="geometry" />
        </mxCell>
        <mxCell id="F-Ds0-RrFE4fpmCMTDMh-65" value="&lt;h1&gt;Účtovná závierka&lt;/h1&gt;" style="text;html=1;strokeColor=none;fillColor=none;spacing=5;spacingTop=-20;whiteSpace=wrap;overflow=hidden;rounded=0;" parent="F-Ds0-RrFE4fpmCMTDMh-64" vertex="1">
          <mxGeometry width="290" height="40" as="geometry" />
        </mxCell>
        <mxCell id="F-Ds0-RrFE4fpmCMTDMh-66" value="" style="ellipse;whiteSpace=wrap;html=1;aspect=fixed;fillColor=#000000;" parent="F-Ds0-RrFE4fpmCMTDMh-64" vertex="1">
          <mxGeometry x="20" y="130.0000000000001" width="20" height="20" as="geometry" />
        </mxCell>
        <mxCell id="F-Ds0-RrFE4fpmCMTDMh-67" value="navrhnutý" style="rounded=1;whiteSpace=wrap;html=1;labelBackgroundColor=none;fillColor=#dae8fc;strokeColor=#6c8ebf;" parent="F-Ds0-RrFE4fpmCMTDMh-64" vertex="1">
          <mxGeometry x="140" y="120" width="110" height="40" as="geometry" />
        </mxCell>
        <mxCell id="F-Ds0-RrFE4fpmCMTDMh-68" style="edgeStyle=orthogonalEdgeStyle;rounded=0;orthogonalLoop=1;jettySize=auto;html=1;exitX=1;exitY=0.5;exitDx=0;exitDy=0;entryX=0;entryY=0.5;entryDx=0;entryDy=0;labelBackgroundColor=#FFFFFF;" parent="F-Ds0-RrFE4fpmCMTDMh-64" source="F-Ds0-RrFE4fpmCMTDMh-66" target="F-Ds0-RrFE4fpmCMTDMh-67" edge="1">
          <mxGeometry relative="1" as="geometry" />
        </mxCell>
        <mxCell id="F-Ds0-RrFE4fpmCMTDMh-69" value="potreba &lt;br&gt;návrhu" style="edgeLabel;html=1;align=center;verticalAlign=middle;resizable=0;points=[];fontColor=default;" parent="F-Ds0-RrFE4fpmCMTDMh-68" vertex="1" connectable="0">
          <mxGeometry x="-0.38" y="-1" relative="1" as="geometry">
            <mxPoint x="9" y="-1" as="offset" />
          </mxGeometry>
        </mxCell>
        <mxCell id="F-Ds0-RrFE4fpmCMTDMh-70" style="edgeStyle=orthogonalEdgeStyle;rounded=0;orthogonalLoop=1;jettySize=auto;html=1;exitX=1;exitY=0.5;exitDx=0;exitDy=0;entryX=0;entryY=0.5;entryDx=0;entryDy=0;labelBackgroundColor=#FFFFFF;" parent="F-Ds0-RrFE4fpmCMTDMh-64" edge="1">
          <mxGeometry relative="1" as="geometry">
            <mxPoint x="250" y="139.7100000000001" as="sourcePoint" />
            <mxPoint x="350" y="139.70999999999998" as="targetPoint" />
          </mxGeometry>
        </mxCell>
        <mxCell id="F-Ds0-RrFE4fpmCMTDMh-71" value="Text" style="edgeLabel;html=1;align=center;verticalAlign=middle;resizable=0;points=[];fontColor=default;" parent="F-Ds0-RrFE4fpmCMTDMh-70" vertex="1" connectable="0">
          <mxGeometry x="0.0086" y="2" relative="1" as="geometry">
            <mxPoint as="offset" />
          </mxGeometry>
        </mxCell>
        <mxCell id="F-Ds0-RrFE4fpmCMTDMh-72" value="skontrolované&lt;br&gt;požiadavky" style="rounded=1;whiteSpace=wrap;html=1;labelBackgroundColor=none;fillColor=#dae8fc;strokeColor=#6c8ebf;" parent="F-Ds0-RrFE4fpmCMTDMh-64" vertex="1">
          <mxGeometry x="350" y="120" width="110" height="40" as="geometry" />
        </mxCell>
        <mxCell id="F-Ds0-RrFE4fpmCMTDMh-73" style="edgeStyle=orthogonalEdgeStyle;rounded=0;orthogonalLoop=1;jettySize=auto;html=1;exitX=1;exitY=0.5;exitDx=0;exitDy=0;entryX=0;entryY=0.5;entryDx=0;entryDy=0;labelBackgroundColor=#FFFFFF;" parent="F-Ds0-RrFE4fpmCMTDMh-64" edge="1">
          <mxGeometry relative="1" as="geometry">
            <mxPoint x="460" y="139.50000000000006" as="sourcePoint" />
            <mxPoint x="560" y="139.50000000000006" as="targetPoint" />
          </mxGeometry>
        </mxCell>
        <mxCell id="F-Ds0-RrFE4fpmCMTDMh-74" value="materiál dovezený&lt;br&gt;skontrolované požiadavky" style="rounded=1;whiteSpace=wrap;html=1;labelBackgroundColor=none;fillColor=#dae8fc;strokeColor=#6c8ebf;" parent="F-Ds0-RrFE4fpmCMTDMh-64" vertex="1">
          <mxGeometry x="560" y="120" width="110" height="40" as="geometry" />
        </mxCell>
        <mxCell id="F-Ds0-RrFE4fpmCMTDMh-75" style="edgeStyle=orthogonalEdgeStyle;rounded=0;orthogonalLoop=1;jettySize=auto;html=1;exitX=1;exitY=0.5;exitDx=0;exitDy=0;entryX=0;entryY=0.5;entryDx=0;entryDy=0;labelBackgroundColor=#FFFFFF;" parent="F-Ds0-RrFE4fpmCMTDMh-64" edge="1">
          <mxGeometry relative="1" as="geometry">
            <mxPoint x="670" y="139.5" as="sourcePoint" />
            <mxPoint x="770" y="139.5" as="targetPoint" />
          </mxGeometry>
        </mxCell>
        <mxCell id="F-Ds0-RrFE4fpmCMTDMh-76" value="navrhnutý" style="rounded=1;whiteSpace=wrap;html=1;labelBackgroundColor=none;fillColor=#dae8fc;strokeColor=#6c8ebf;" parent="F-Ds0-RrFE4fpmCMTDMh-64" vertex="1">
          <mxGeometry x="770" y="120" width="110" height="40" as="geometry" />
        </mxCell>
        <mxCell id="F-Ds0-RrFE4fpmCMTDMh-77" value="otestovaný" style="rounded=1;whiteSpace=wrap;html=1;labelBackgroundColor=none;fillColor=#dae8fc;strokeColor=#6c8ebf;" parent="F-Ds0-RrFE4fpmCMTDMh-64" vertex="1">
          <mxGeometry x="770" y="220" width="110" height="40" as="geometry" />
        </mxCell>
        <mxCell id="F-Ds0-RrFE4fpmCMTDMh-78" style="edgeStyle=orthogonalEdgeStyle;rounded=0;orthogonalLoop=1;jettySize=auto;html=1;exitX=0.5;exitY=1;exitDx=0;exitDy=0;entryX=0.5;entryY=0;entryDx=0;entryDy=0;labelBackgroundColor=#FFFFFF;" parent="F-Ds0-RrFE4fpmCMTDMh-64" source="F-Ds0-RrFE4fpmCMTDMh-76" target="F-Ds0-RrFE4fpmCMTDMh-77" edge="1">
          <mxGeometry relative="1" as="geometry" />
        </mxCell>
        <mxCell id="F-Ds0-RrFE4fpmCMTDMh-79" value="fdsgsdgsdgsdghasd" style="edgeStyle=orthogonalEdgeStyle;rounded=0;orthogonalLoop=1;jettySize=auto;html=1;exitX=0.5;exitY=1;exitDx=0;exitDy=0;labelBackgroundColor=#FFFFFF;entryX=0.5;entryY=0;entryDx=0;entryDy=0;" parent="F-Ds0-RrFE4fpmCMTDMh-64" source="F-Ds0-RrFE4fpmCMTDMh-80" edge="1">
          <mxGeometry relative="1" as="geometry">
            <mxPoint x="826" y="440" as="targetPoint" />
          </mxGeometry>
        </mxCell>
        <mxCell id="F-Ds0-RrFE4fpmCMTDMh-80" value="k§p" style="rounded=1;whiteSpace=wrap;html=1;labelBackgroundColor=none;fillColor=#dae8fc;strokeColor=#6c8ebf;" parent="F-Ds0-RrFE4fpmCMTDMh-64" vertex="1">
          <mxGeometry x="770" y="320" width="110" height="40" as="geometry" />
        </mxCell>
        <mxCell id="F-Ds0-RrFE4fpmCMTDMh-81" style="edgeStyle=orthogonalEdgeStyle;rounded=0;orthogonalLoop=1;jettySize=auto;html=1;exitX=0.5;exitY=1;exitDx=0;exitDy=0;entryX=0.5;entryY=0;entryDx=0;entryDy=0;labelBackgroundColor=#FFFFFF;" parent="F-Ds0-RrFE4fpmCMTDMh-64" source="F-Ds0-RrFE4fpmCMTDMh-77" target="F-Ds0-RrFE4fpmCMTDMh-80" edge="1">
          <mxGeometry relative="1" as="geometry" />
        </mxCell>
        <mxCell id="F-Ds0-RrFE4fpmCMTDMh-82" value="" style="group" parent="1" vertex="1" connectable="0">
          <mxGeometry x="170" y="4380" width="880" height="440" as="geometry" />
        </mxCell>
        <mxCell id="F-Ds0-RrFE4fpmCMTDMh-83" value="&lt;h1&gt;Servisná dokumentácia&lt;/h1&gt;" style="text;html=1;strokeColor=none;fillColor=none;spacing=5;spacingTop=-20;whiteSpace=wrap;overflow=hidden;rounded=0;" parent="F-Ds0-RrFE4fpmCMTDMh-82" vertex="1">
          <mxGeometry width="290" height="40" as="geometry" />
        </mxCell>
        <mxCell id="F-Ds0-RrFE4fpmCMTDMh-84" value="" style="ellipse;whiteSpace=wrap;html=1;aspect=fixed;fillColor=#000000;" parent="F-Ds0-RrFE4fpmCMTDMh-82" vertex="1">
          <mxGeometry x="20" y="130.0000000000001" width="20" height="20" as="geometry" />
        </mxCell>
        <mxCell id="F-Ds0-RrFE4fpmCMTDMh-85" value="navrhnutý" style="rounded=1;whiteSpace=wrap;html=1;labelBackgroundColor=none;fillColor=#dae8fc;strokeColor=#6c8ebf;" parent="F-Ds0-RrFE4fpmCMTDMh-82" vertex="1">
          <mxGeometry x="140" y="120" width="110" height="40" as="geometry" />
        </mxCell>
        <mxCell id="F-Ds0-RrFE4fpmCMTDMh-86" style="edgeStyle=orthogonalEdgeStyle;rounded=0;orthogonalLoop=1;jettySize=auto;html=1;exitX=1;exitY=0.5;exitDx=0;exitDy=0;entryX=0;entryY=0.5;entryDx=0;entryDy=0;labelBackgroundColor=#FFFFFF;" parent="F-Ds0-RrFE4fpmCMTDMh-82" source="F-Ds0-RrFE4fpmCMTDMh-84" target="F-Ds0-RrFE4fpmCMTDMh-85" edge="1">
          <mxGeometry relative="1" as="geometry" />
        </mxCell>
        <mxCell id="F-Ds0-RrFE4fpmCMTDMh-87" value="potreba &lt;br&gt;návrhu" style="edgeLabel;html=1;align=center;verticalAlign=middle;resizable=0;points=[];fontColor=default;" parent="F-Ds0-RrFE4fpmCMTDMh-86" vertex="1" connectable="0">
          <mxGeometry x="-0.38" y="-1" relative="1" as="geometry">
            <mxPoint x="9" y="-1" as="offset" />
          </mxGeometry>
        </mxCell>
        <mxCell id="F-Ds0-RrFE4fpmCMTDMh-88" style="edgeStyle=orthogonalEdgeStyle;rounded=0;orthogonalLoop=1;jettySize=auto;html=1;exitX=1;exitY=0.5;exitDx=0;exitDy=0;entryX=0;entryY=0.5;entryDx=0;entryDy=0;labelBackgroundColor=#FFFFFF;" parent="F-Ds0-RrFE4fpmCMTDMh-82" edge="1">
          <mxGeometry relative="1" as="geometry">
            <mxPoint x="250" y="139.7100000000001" as="sourcePoint" />
            <mxPoint x="350" y="139.70999999999998" as="targetPoint" />
          </mxGeometry>
        </mxCell>
        <mxCell id="F-Ds0-RrFE4fpmCMTDMh-89" value="Text" style="edgeLabel;html=1;align=center;verticalAlign=middle;resizable=0;points=[];fontColor=default;" parent="F-Ds0-RrFE4fpmCMTDMh-88" vertex="1" connectable="0">
          <mxGeometry x="0.0086" y="2" relative="1" as="geometry">
            <mxPoint as="offset" />
          </mxGeometry>
        </mxCell>
        <mxCell id="F-Ds0-RrFE4fpmCMTDMh-90" value="skontrolované&lt;br&gt;požiadavky" style="rounded=1;whiteSpace=wrap;html=1;labelBackgroundColor=none;fillColor=#dae8fc;strokeColor=#6c8ebf;" parent="F-Ds0-RrFE4fpmCMTDMh-82" vertex="1">
          <mxGeometry x="350" y="120" width="110" height="40" as="geometry" />
        </mxCell>
        <mxCell id="F-Ds0-RrFE4fpmCMTDMh-91" style="edgeStyle=orthogonalEdgeStyle;rounded=0;orthogonalLoop=1;jettySize=auto;html=1;exitX=1;exitY=0.5;exitDx=0;exitDy=0;entryX=0;entryY=0.5;entryDx=0;entryDy=0;labelBackgroundColor=#FFFFFF;" parent="F-Ds0-RrFE4fpmCMTDMh-82" edge="1">
          <mxGeometry relative="1" as="geometry">
            <mxPoint x="460" y="139.50000000000006" as="sourcePoint" />
            <mxPoint x="560" y="139.50000000000006" as="targetPoint" />
          </mxGeometry>
        </mxCell>
        <mxCell id="F-Ds0-RrFE4fpmCMTDMh-92" value="materiál dovezený&lt;br&gt;skontrolované požiadavky" style="rounded=1;whiteSpace=wrap;html=1;labelBackgroundColor=none;fillColor=#dae8fc;strokeColor=#6c8ebf;" parent="F-Ds0-RrFE4fpmCMTDMh-82" vertex="1">
          <mxGeometry x="560" y="120" width="110" height="40" as="geometry" />
        </mxCell>
        <mxCell id="F-Ds0-RrFE4fpmCMTDMh-93" style="edgeStyle=orthogonalEdgeStyle;rounded=0;orthogonalLoop=1;jettySize=auto;html=1;exitX=1;exitY=0.5;exitDx=0;exitDy=0;entryX=0;entryY=0.5;entryDx=0;entryDy=0;labelBackgroundColor=#FFFFFF;" parent="F-Ds0-RrFE4fpmCMTDMh-82" edge="1">
          <mxGeometry relative="1" as="geometry">
            <mxPoint x="670" y="139.5" as="sourcePoint" />
            <mxPoint x="770" y="139.5" as="targetPoint" />
          </mxGeometry>
        </mxCell>
        <mxCell id="F-Ds0-RrFE4fpmCMTDMh-94" value="navrhnutý" style="rounded=1;whiteSpace=wrap;html=1;labelBackgroundColor=none;fillColor=#dae8fc;strokeColor=#6c8ebf;" parent="F-Ds0-RrFE4fpmCMTDMh-82" vertex="1">
          <mxGeometry x="770" y="120" width="110" height="40" as="geometry" />
        </mxCell>
        <mxCell id="F-Ds0-RrFE4fpmCMTDMh-95" value="otestovaný" style="rounded=1;whiteSpace=wrap;html=1;labelBackgroundColor=none;fillColor=#dae8fc;strokeColor=#6c8ebf;" parent="F-Ds0-RrFE4fpmCMTDMh-82" vertex="1">
          <mxGeometry x="770" y="220" width="110" height="40" as="geometry" />
        </mxCell>
        <mxCell id="F-Ds0-RrFE4fpmCMTDMh-96" style="edgeStyle=orthogonalEdgeStyle;rounded=0;orthogonalLoop=1;jettySize=auto;html=1;exitX=0.5;exitY=1;exitDx=0;exitDy=0;entryX=0.5;entryY=0;entryDx=0;entryDy=0;labelBackgroundColor=#FFFFFF;" parent="F-Ds0-RrFE4fpmCMTDMh-82" source="F-Ds0-RrFE4fpmCMTDMh-94" target="F-Ds0-RrFE4fpmCMTDMh-95" edge="1">
          <mxGeometry relative="1" as="geometry" />
        </mxCell>
        <mxCell id="F-Ds0-RrFE4fpmCMTDMh-97" value="fdsgsdgsdgsdghasd" style="edgeStyle=orthogonalEdgeStyle;rounded=0;orthogonalLoop=1;jettySize=auto;html=1;exitX=0.5;exitY=1;exitDx=0;exitDy=0;labelBackgroundColor=#FFFFFF;entryX=0.5;entryY=0;entryDx=0;entryDy=0;" parent="F-Ds0-RrFE4fpmCMTDMh-82" source="F-Ds0-RrFE4fpmCMTDMh-98" edge="1">
          <mxGeometry relative="1" as="geometry">
            <mxPoint x="826" y="440" as="targetPoint" />
          </mxGeometry>
        </mxCell>
        <mxCell id="F-Ds0-RrFE4fpmCMTDMh-98" value="k§p" style="rounded=1;whiteSpace=wrap;html=1;labelBackgroundColor=none;fillColor=#dae8fc;strokeColor=#6c8ebf;" parent="F-Ds0-RrFE4fpmCMTDMh-82" vertex="1">
          <mxGeometry x="770" y="320" width="110" height="40" as="geometry" />
        </mxCell>
        <mxCell id="F-Ds0-RrFE4fpmCMTDMh-99" style="edgeStyle=orthogonalEdgeStyle;rounded=0;orthogonalLoop=1;jettySize=auto;html=1;exitX=0.5;exitY=1;exitDx=0;exitDy=0;entryX=0.5;entryY=0;entryDx=0;entryDy=0;labelBackgroundColor=#FFFFFF;" parent="F-Ds0-RrFE4fpmCMTDMh-82" source="F-Ds0-RrFE4fpmCMTDMh-95" target="F-Ds0-RrFE4fpmCMTDMh-98" edge="1">
          <mxGeometry relative="1" as="geometry" />
        </mxCell>
        <mxCell id="F-Ds0-RrFE4fpmCMTDMh-101" value="" style="group;fontSize=10;" parent="1" vertex="1" connectable="0">
          <mxGeometry x="990" y="100" width="20" height="20" as="geometry" />
        </mxCell>
        <mxCell id="F-Ds0-RrFE4fpmCMTDMh-102" value="" style="ellipse;whiteSpace=wrap;html=1;aspect=fixed;fontSize=10;" parent="F-Ds0-RrFE4fpmCMTDMh-101" vertex="1">
          <mxGeometry width="20" height="20" as="geometry" />
        </mxCell>
        <mxCell id="F-Ds0-RrFE4fpmCMTDMh-103" value="" style="ellipse;whiteSpace=wrap;html=1;aspect=fixed;fillColor=#000000;fontSize=10;" parent="F-Ds0-RrFE4fpmCMTDMh-101" vertex="1">
          <mxGeometry x="5" y="5" width="10" height="10" as="geometry" />
        </mxCell>
        <mxCell id="oIq1Fcmr9-6_nXg10YBY-95" value="" style="edgeStyle=orthogonalEdgeStyle;rounded=0;orthogonalLoop=1;jettySize=auto;html=1;exitX=0.5;exitY=1;exitDx=0;exitDy=0;labelBackgroundColor=#FFFFFF;entryX=0.5;entryY=0;entryDx=0;entryDy=0;" parent="1" source="oIq1Fcmr9-6_nXg10YBY-96" target="F-Ds0-RrFE4fpmCMTDMh-102" edge="1">
          <mxGeometry relative="1" as="geometry">
            <mxPoint x="1006" y="100" as="targetPoint" />
          </mxGeometry>
        </mxCell>
      </root>
    </mxGraphModel>
  </diagram>
  <diagram id="NiMg8_zGkpiWJP_YBJ78" name="Page-2">
    <mxGraphModel dx="3434" dy="1453" grid="1" gridSize="10" guides="1" tooltips="1" connect="1" arrows="1" fold="1" page="1" pageScale="1" pageWidth="850" pageHeight="1100" math="0" shadow="0">
      <root>
        <mxCell id="0" />
        <mxCell id="1" parent="0" />
        <mxCell id="k16UUtoIB13Oqxugadb4-1" value="Faktura" style="swimlane;fontStyle=0;childLayout=stackLayout;horizontal=1;startSize=30;horizontalStack=0;resizeParent=1;resizeParentMax=0;resizeLast=0;collapsible=1;marginBottom=0;whiteSpace=wrap;html=1;" vertex="1" parent="1">
          <mxGeometry x="50" y="170" width="140" height="120" as="geometry" />
        </mxCell>
        <mxCell id="k16UUtoIB13Oqxugadb4-2" value="Item 1" style="text;strokeColor=none;fillColor=none;align=left;verticalAlign=middle;spacingLeft=4;spacingRight=4;overflow=hidden;points=[[0,0.5],[1,0.5]];portConstraint=eastwest;rotatable=0;whiteSpace=wrap;html=1;" vertex="1" parent="k16UUtoIB13Oqxugadb4-1">
          <mxGeometry y="30" width="140" height="30" as="geometry" />
        </mxCell>
        <mxCell id="k16UUtoIB13Oqxugadb4-3" value="Item 2" style="text;strokeColor=none;fillColor=none;align=left;verticalAlign=middle;spacingLeft=4;spacingRight=4;overflow=hidden;points=[[0,0.5],[1,0.5]];portConstraint=eastwest;rotatable=0;whiteSpace=wrap;html=1;" vertex="1" parent="k16UUtoIB13Oqxugadb4-1">
          <mxGeometry y="60" width="140" height="30" as="geometry" />
        </mxCell>
        <mxCell id="k16UUtoIB13Oqxugadb4-4" value="Item 3" style="text;strokeColor=none;fillColor=none;align=left;verticalAlign=middle;spacingLeft=4;spacingRight=4;overflow=hidden;points=[[0,0.5],[1,0.5]];portConstraint=eastwest;rotatable=0;whiteSpace=wrap;html=1;" vertex="1" parent="k16UUtoIB13Oqxugadb4-1">
          <mxGeometry y="90" width="140" height="30" as="geometry" />
        </mxCell>
        <mxCell id="k16UUtoIB13Oqxugadb4-5" value="Faktura_za_nabytok" style="swimlane;fontStyle=0;childLayout=stackLayout;horizontal=1;startSize=30;horizontalStack=0;resizeParent=1;resizeParentMax=0;resizeLast=0;collapsible=1;marginBottom=0;whiteSpace=wrap;html=1;" vertex="1" parent="1">
          <mxGeometry x="180" y="370" width="140" height="120" as="geometry" />
        </mxCell>
        <mxCell id="k16UUtoIB13Oqxugadb4-6" value="Item 1" style="text;strokeColor=none;fillColor=none;align=left;verticalAlign=middle;spacingLeft=4;spacingRight=4;overflow=hidden;points=[[0,0.5],[1,0.5]];portConstraint=eastwest;rotatable=0;whiteSpace=wrap;html=1;" vertex="1" parent="k16UUtoIB13Oqxugadb4-5">
          <mxGeometry y="30" width="140" height="30" as="geometry" />
        </mxCell>
        <mxCell id="k16UUtoIB13Oqxugadb4-7" value="Item 2" style="text;strokeColor=none;fillColor=none;align=left;verticalAlign=middle;spacingLeft=4;spacingRight=4;overflow=hidden;points=[[0,0.5],[1,0.5]];portConstraint=eastwest;rotatable=0;whiteSpace=wrap;html=1;" vertex="1" parent="k16UUtoIB13Oqxugadb4-5">
          <mxGeometry y="60" width="140" height="30" as="geometry" />
        </mxCell>
        <mxCell id="k16UUtoIB13Oqxugadb4-8" value="Item 3" style="text;strokeColor=none;fillColor=none;align=left;verticalAlign=middle;spacingLeft=4;spacingRight=4;overflow=hidden;points=[[0,0.5],[1,0.5]];portConstraint=eastwest;rotatable=0;whiteSpace=wrap;html=1;" vertex="1" parent="k16UUtoIB13Oqxugadb4-5">
          <mxGeometry y="90" width="140" height="30" as="geometry" />
        </mxCell>
        <mxCell id="k16UUtoIB13Oqxugadb4-9" value="Faktura_za_material" style="swimlane;fontStyle=0;childLayout=stackLayout;horizontal=1;startSize=30;horizontalStack=0;resizeParent=1;resizeParentMax=0;resizeLast=0;collapsible=1;marginBottom=0;whiteSpace=wrap;html=1;" vertex="1" parent="1">
          <mxGeometry x="-80" y="370" width="140" height="120" as="geometry" />
        </mxCell>
        <mxCell id="k16UUtoIB13Oqxugadb4-10" value="Item 1" style="text;strokeColor=none;fillColor=none;align=left;verticalAlign=middle;spacingLeft=4;spacingRight=4;overflow=hidden;points=[[0,0.5],[1,0.5]];portConstraint=eastwest;rotatable=0;whiteSpace=wrap;html=1;" vertex="1" parent="k16UUtoIB13Oqxugadb4-9">
          <mxGeometry y="30" width="140" height="30" as="geometry" />
        </mxCell>
        <mxCell id="k16UUtoIB13Oqxugadb4-11" value="Item 2" style="text;strokeColor=none;fillColor=none;align=left;verticalAlign=middle;spacingLeft=4;spacingRight=4;overflow=hidden;points=[[0,0.5],[1,0.5]];portConstraint=eastwest;rotatable=0;whiteSpace=wrap;html=1;" vertex="1" parent="k16UUtoIB13Oqxugadb4-9">
          <mxGeometry y="60" width="140" height="30" as="geometry" />
        </mxCell>
        <mxCell id="k16UUtoIB13Oqxugadb4-12" value="Item 3" style="text;strokeColor=none;fillColor=none;align=left;verticalAlign=middle;spacingLeft=4;spacingRight=4;overflow=hidden;points=[[0,0.5],[1,0.5]];portConstraint=eastwest;rotatable=0;whiteSpace=wrap;html=1;" vertex="1" parent="k16UUtoIB13Oqxugadb4-9">
          <mxGeometry y="90" width="140" height="30" as="geometry" />
        </mxCell>
        <mxCell id="k16UUtoIB13Oqxugadb4-13" value="Objednavka" style="swimlane;fontStyle=0;childLayout=stackLayout;horizontal=1;startSize=30;horizontalStack=0;resizeParent=1;resizeParentMax=0;resizeLast=0;collapsible=1;marginBottom=0;whiteSpace=wrap;html=1;" vertex="1" parent="1">
          <mxGeometry x="600" y="170" width="140" height="120" as="geometry" />
        </mxCell>
        <mxCell id="k16UUtoIB13Oqxugadb4-14" value="Item 1" style="text;strokeColor=none;fillColor=none;align=left;verticalAlign=middle;spacingLeft=4;spacingRight=4;overflow=hidden;points=[[0,0.5],[1,0.5]];portConstraint=eastwest;rotatable=0;whiteSpace=wrap;html=1;" vertex="1" parent="k16UUtoIB13Oqxugadb4-13">
          <mxGeometry y="30" width="140" height="30" as="geometry" />
        </mxCell>
        <mxCell id="k16UUtoIB13Oqxugadb4-15" value="Item 2" style="text;strokeColor=none;fillColor=none;align=left;verticalAlign=middle;spacingLeft=4;spacingRight=4;overflow=hidden;points=[[0,0.5],[1,0.5]];portConstraint=eastwest;rotatable=0;whiteSpace=wrap;html=1;" vertex="1" parent="k16UUtoIB13Oqxugadb4-13">
          <mxGeometry y="60" width="140" height="30" as="geometry" />
        </mxCell>
        <mxCell id="k16UUtoIB13Oqxugadb4-16" value="Item 3" style="text;strokeColor=none;fillColor=none;align=left;verticalAlign=middle;spacingLeft=4;spacingRight=4;overflow=hidden;points=[[0,0.5],[1,0.5]];portConstraint=eastwest;rotatable=0;whiteSpace=wrap;html=1;" vertex="1" parent="k16UUtoIB13Oqxugadb4-13">
          <mxGeometry y="90" width="140" height="30" as="geometry" />
        </mxCell>
        <mxCell id="k16UUtoIB13Oqxugadb4-17" value="Objednavka_nabytku" style="swimlane;fontStyle=0;childLayout=stackLayout;horizontal=1;startSize=30;horizontalStack=0;resizeParent=1;resizeParentMax=0;resizeLast=0;collapsible=1;marginBottom=0;whiteSpace=wrap;html=1;" vertex="1" parent="1">
          <mxGeometry x="730" y="370" width="140" height="120" as="geometry" />
        </mxCell>
        <mxCell id="k16UUtoIB13Oqxugadb4-18" value="Item 1" style="text;strokeColor=none;fillColor=none;align=left;verticalAlign=middle;spacingLeft=4;spacingRight=4;overflow=hidden;points=[[0,0.5],[1,0.5]];portConstraint=eastwest;rotatable=0;whiteSpace=wrap;html=1;" vertex="1" parent="k16UUtoIB13Oqxugadb4-17">
          <mxGeometry y="30" width="140" height="30" as="geometry" />
        </mxCell>
        <mxCell id="k16UUtoIB13Oqxugadb4-19" value="Item 2" style="text;strokeColor=none;fillColor=none;align=left;verticalAlign=middle;spacingLeft=4;spacingRight=4;overflow=hidden;points=[[0,0.5],[1,0.5]];portConstraint=eastwest;rotatable=0;whiteSpace=wrap;html=1;" vertex="1" parent="k16UUtoIB13Oqxugadb4-17">
          <mxGeometry y="60" width="140" height="30" as="geometry" />
        </mxCell>
        <mxCell id="k16UUtoIB13Oqxugadb4-20" value="Item 3" style="text;strokeColor=none;fillColor=none;align=left;verticalAlign=middle;spacingLeft=4;spacingRight=4;overflow=hidden;points=[[0,0.5],[1,0.5]];portConstraint=eastwest;rotatable=0;whiteSpace=wrap;html=1;" vertex="1" parent="k16UUtoIB13Oqxugadb4-17">
          <mxGeometry y="90" width="140" height="30" as="geometry" />
        </mxCell>
        <mxCell id="k16UUtoIB13Oqxugadb4-21" value="Objednavka_materialu" style="swimlane;fontStyle=0;childLayout=stackLayout;horizontal=1;startSize=30;horizontalStack=0;resizeParent=1;resizeParentMax=0;resizeLast=0;collapsible=1;marginBottom=0;whiteSpace=wrap;html=1;" vertex="1" parent="1">
          <mxGeometry x="470" y="370" width="140" height="120" as="geometry" />
        </mxCell>
        <mxCell id="k16UUtoIB13Oqxugadb4-22" value="Item 1" style="text;strokeColor=none;fillColor=none;align=left;verticalAlign=middle;spacingLeft=4;spacingRight=4;overflow=hidden;points=[[0,0.5],[1,0.5]];portConstraint=eastwest;rotatable=0;whiteSpace=wrap;html=1;" vertex="1" parent="k16UUtoIB13Oqxugadb4-21">
          <mxGeometry y="30" width="140" height="30" as="geometry" />
        </mxCell>
        <mxCell id="k16UUtoIB13Oqxugadb4-23" value="Item 2" style="text;strokeColor=none;fillColor=none;align=left;verticalAlign=middle;spacingLeft=4;spacingRight=4;overflow=hidden;points=[[0,0.5],[1,0.5]];portConstraint=eastwest;rotatable=0;whiteSpace=wrap;html=1;" vertex="1" parent="k16UUtoIB13Oqxugadb4-21">
          <mxGeometry y="60" width="140" height="30" as="geometry" />
        </mxCell>
        <mxCell id="k16UUtoIB13Oqxugadb4-24" value="Item 3" style="text;strokeColor=none;fillColor=none;align=left;verticalAlign=middle;spacingLeft=4;spacingRight=4;overflow=hidden;points=[[0,0.5],[1,0.5]];portConstraint=eastwest;rotatable=0;whiteSpace=wrap;html=1;" vertex="1" parent="k16UUtoIB13Oqxugadb4-21">
          <mxGeometry y="90" width="140" height="30" as="geometry" />
        </mxCell>
        <mxCell id="k16UUtoIB13Oqxugadb4-25" value="Reklamacia" style="swimlane;fontStyle=0;childLayout=stackLayout;horizontal=1;startSize=30;horizontalStack=0;resizeParent=1;resizeParentMax=0;resizeLast=0;collapsible=1;marginBottom=0;whiteSpace=wrap;html=1;" vertex="1" parent="1">
          <mxGeometry x="-480" y="170" width="140" height="120" as="geometry" />
        </mxCell>
        <mxCell id="k16UUtoIB13Oqxugadb4-26" value="Item 1" style="text;strokeColor=none;fillColor=none;align=left;verticalAlign=middle;spacingLeft=4;spacingRight=4;overflow=hidden;points=[[0,0.5],[1,0.5]];portConstraint=eastwest;rotatable=0;whiteSpace=wrap;html=1;" vertex="1" parent="k16UUtoIB13Oqxugadb4-25">
          <mxGeometry y="30" width="140" height="30" as="geometry" />
        </mxCell>
        <mxCell id="k16UUtoIB13Oqxugadb4-27" value="Item 2" style="text;strokeColor=none;fillColor=none;align=left;verticalAlign=middle;spacingLeft=4;spacingRight=4;overflow=hidden;points=[[0,0.5],[1,0.5]];portConstraint=eastwest;rotatable=0;whiteSpace=wrap;html=1;" vertex="1" parent="k16UUtoIB13Oqxugadb4-25">
          <mxGeometry y="60" width="140" height="30" as="geometry" />
        </mxCell>
        <mxCell id="k16UUtoIB13Oqxugadb4-28" value="Item 3" style="text;strokeColor=none;fillColor=none;align=left;verticalAlign=middle;spacingLeft=4;spacingRight=4;overflow=hidden;points=[[0,0.5],[1,0.5]];portConstraint=eastwest;rotatable=0;whiteSpace=wrap;html=1;" vertex="1" parent="k16UUtoIB13Oqxugadb4-25">
          <mxGeometry y="90" width="140" height="30" as="geometry" />
        </mxCell>
        <mxCell id="k16UUtoIB13Oqxugadb4-29" value="Reklamacia_nabytku" style="swimlane;fontStyle=0;childLayout=stackLayout;horizontal=1;startSize=30;horizontalStack=0;resizeParent=1;resizeParentMax=0;resizeLast=0;collapsible=1;marginBottom=0;whiteSpace=wrap;html=1;" vertex="1" parent="1">
          <mxGeometry x="-350" y="370" width="140" height="120" as="geometry" />
        </mxCell>
        <mxCell id="k16UUtoIB13Oqxugadb4-30" value="Item 1" style="text;strokeColor=none;fillColor=none;align=left;verticalAlign=middle;spacingLeft=4;spacingRight=4;overflow=hidden;points=[[0,0.5],[1,0.5]];portConstraint=eastwest;rotatable=0;whiteSpace=wrap;html=1;" vertex="1" parent="k16UUtoIB13Oqxugadb4-29">
          <mxGeometry y="30" width="140" height="30" as="geometry" />
        </mxCell>
        <mxCell id="k16UUtoIB13Oqxugadb4-31" value="Item 2" style="text;strokeColor=none;fillColor=none;align=left;verticalAlign=middle;spacingLeft=4;spacingRight=4;overflow=hidden;points=[[0,0.5],[1,0.5]];portConstraint=eastwest;rotatable=0;whiteSpace=wrap;html=1;" vertex="1" parent="k16UUtoIB13Oqxugadb4-29">
          <mxGeometry y="60" width="140" height="30" as="geometry" />
        </mxCell>
        <mxCell id="k16UUtoIB13Oqxugadb4-32" value="Item 3" style="text;strokeColor=none;fillColor=none;align=left;verticalAlign=middle;spacingLeft=4;spacingRight=4;overflow=hidden;points=[[0,0.5],[1,0.5]];portConstraint=eastwest;rotatable=0;whiteSpace=wrap;html=1;" vertex="1" parent="k16UUtoIB13Oqxugadb4-29">
          <mxGeometry y="90" width="140" height="30" as="geometry" />
        </mxCell>
        <mxCell id="k16UUtoIB13Oqxugadb4-33" value="Reklamacia_materialu" style="swimlane;fontStyle=0;childLayout=stackLayout;horizontal=1;startSize=30;horizontalStack=0;resizeParent=1;resizeParentMax=0;resizeLast=0;collapsible=1;marginBottom=0;whiteSpace=wrap;html=1;" vertex="1" parent="1">
          <mxGeometry x="-610" y="370" width="140" height="120" as="geometry" />
        </mxCell>
        <mxCell id="k16UUtoIB13Oqxugadb4-34" value="Item 1" style="text;strokeColor=none;fillColor=none;align=left;verticalAlign=middle;spacingLeft=4;spacingRight=4;overflow=hidden;points=[[0,0.5],[1,0.5]];portConstraint=eastwest;rotatable=0;whiteSpace=wrap;html=1;" vertex="1" parent="k16UUtoIB13Oqxugadb4-33">
          <mxGeometry y="30" width="140" height="30" as="geometry" />
        </mxCell>
        <mxCell id="k16UUtoIB13Oqxugadb4-35" value="Item 2" style="text;strokeColor=none;fillColor=none;align=left;verticalAlign=middle;spacingLeft=4;spacingRight=4;overflow=hidden;points=[[0,0.5],[1,0.5]];portConstraint=eastwest;rotatable=0;whiteSpace=wrap;html=1;" vertex="1" parent="k16UUtoIB13Oqxugadb4-33">
          <mxGeometry y="60" width="140" height="30" as="geometry" />
        </mxCell>
        <mxCell id="k16UUtoIB13Oqxugadb4-36" value="Item 3" style="text;strokeColor=none;fillColor=none;align=left;verticalAlign=middle;spacingLeft=4;spacingRight=4;overflow=hidden;points=[[0,0.5],[1,0.5]];portConstraint=eastwest;rotatable=0;whiteSpace=wrap;html=1;" vertex="1" parent="k16UUtoIB13Oqxugadb4-33">
          <mxGeometry y="90" width="140" height="30" as="geometry" />
        </mxCell>
        <mxCell id="k16UUtoIB13Oqxugadb4-37" value="Zamestnanec" style="swimlane;fontStyle=1;childLayout=stackLayout;horizontal=1;startSize=30;horizontalStack=0;resizeParent=1;resizeParentMax=0;resizeLast=0;collapsible=1;marginBottom=0;whiteSpace=wrap;html=1;" vertex="1" parent="1">
          <mxGeometry x="1080" y="160" width="140" height="120" as="geometry" />
        </mxCell>
        <mxCell id="k16UUtoIB13Oqxugadb4-38" value="Item 1" style="text;strokeColor=none;fillColor=none;align=left;verticalAlign=middle;spacingLeft=4;spacingRight=4;overflow=hidden;points=[[0,0.5],[1,0.5]];portConstraint=eastwest;rotatable=0;whiteSpace=wrap;html=1;" vertex="1" parent="k16UUtoIB13Oqxugadb4-37">
          <mxGeometry y="30" width="140" height="30" as="geometry" />
        </mxCell>
        <mxCell id="k16UUtoIB13Oqxugadb4-39" value="Item 2" style="text;strokeColor=none;fillColor=none;align=left;verticalAlign=middle;spacingLeft=4;spacingRight=4;overflow=hidden;points=[[0,0.5],[1,0.5]];portConstraint=eastwest;rotatable=0;whiteSpace=wrap;html=1;" vertex="1" parent="k16UUtoIB13Oqxugadb4-37">
          <mxGeometry y="60" width="140" height="30" as="geometry" />
        </mxCell>
        <mxCell id="k16UUtoIB13Oqxugadb4-40" value="Item 3" style="text;strokeColor=none;fillColor=none;align=left;verticalAlign=middle;spacingLeft=4;spacingRight=4;overflow=hidden;points=[[0,0.5],[1,0.5]];portConstraint=eastwest;rotatable=0;whiteSpace=wrap;html=1;" vertex="1" parent="k16UUtoIB13Oqxugadb4-37">
          <mxGeometry y="90" width="140" height="30" as="geometry" />
        </mxCell>
        <mxCell id="k16UUtoIB13Oqxugadb4-41" value="Zákazník" style="swimlane;fontStyle=0;childLayout=stackLayout;horizontal=1;startSize=30;horizontalStack=0;resizeParent=1;resizeParentMax=0;resizeLast=0;collapsible=1;marginBottom=0;whiteSpace=wrap;html=1;" vertex="1" parent="1">
          <mxGeometry x="1290" y="160" width="140" height="120" as="geometry" />
        </mxCell>
        <mxCell id="k16UUtoIB13Oqxugadb4-42" value="Item 1" style="text;strokeColor=none;fillColor=none;align=left;verticalAlign=middle;spacingLeft=4;spacingRight=4;overflow=hidden;points=[[0,0.5],[1,0.5]];portConstraint=eastwest;rotatable=0;whiteSpace=wrap;html=1;" vertex="1" parent="k16UUtoIB13Oqxugadb4-41">
          <mxGeometry y="30" width="140" height="30" as="geometry" />
        </mxCell>
        <mxCell id="k16UUtoIB13Oqxugadb4-43" value="Item 2" style="text;strokeColor=none;fillColor=none;align=left;verticalAlign=middle;spacingLeft=4;spacingRight=4;overflow=hidden;points=[[0,0.5],[1,0.5]];portConstraint=eastwest;rotatable=0;whiteSpace=wrap;html=1;" vertex="1" parent="k16UUtoIB13Oqxugadb4-41">
          <mxGeometry y="60" width="140" height="30" as="geometry" />
        </mxCell>
        <mxCell id="k16UUtoIB13Oqxugadb4-44" value="Item 3" style="text;strokeColor=none;fillColor=none;align=left;verticalAlign=middle;spacingLeft=4;spacingRight=4;overflow=hidden;points=[[0,0.5],[1,0.5]];portConstraint=eastwest;rotatable=0;whiteSpace=wrap;html=1;" vertex="1" parent="k16UUtoIB13Oqxugadb4-41">
          <mxGeometry y="90" width="140" height="30" as="geometry" />
        </mxCell>
        <mxCell id="k16UUtoIB13Oqxugadb4-45" value="Nábytok" style="swimlane;fontStyle=0;childLayout=stackLayout;horizontal=1;startSize=30;horizontalStack=0;resizeParent=1;resizeParentMax=0;resizeLast=0;collapsible=1;marginBottom=0;whiteSpace=wrap;html=1;" vertex="1" parent="1">
          <mxGeometry x="1080" y="370" width="140" height="120" as="geometry" />
        </mxCell>
        <mxCell id="k16UUtoIB13Oqxugadb4-46" value="Item 1" style="text;strokeColor=none;fillColor=none;align=left;verticalAlign=middle;spacingLeft=4;spacingRight=4;overflow=hidden;points=[[0,0.5],[1,0.5]];portConstraint=eastwest;rotatable=0;whiteSpace=wrap;html=1;" vertex="1" parent="k16UUtoIB13Oqxugadb4-45">
          <mxGeometry y="30" width="140" height="30" as="geometry" />
        </mxCell>
        <mxCell id="k16UUtoIB13Oqxugadb4-47" value="Item 2" style="text;strokeColor=none;fillColor=none;align=left;verticalAlign=middle;spacingLeft=4;spacingRight=4;overflow=hidden;points=[[0,0.5],[1,0.5]];portConstraint=eastwest;rotatable=0;whiteSpace=wrap;html=1;" vertex="1" parent="k16UUtoIB13Oqxugadb4-45">
          <mxGeometry y="60" width="140" height="30" as="geometry" />
        </mxCell>
        <mxCell id="k16UUtoIB13Oqxugadb4-48" value="Item 3" style="text;strokeColor=none;fillColor=none;align=left;verticalAlign=middle;spacingLeft=4;spacingRight=4;overflow=hidden;points=[[0,0.5],[1,0.5]];portConstraint=eastwest;rotatable=0;whiteSpace=wrap;html=1;" vertex="1" parent="k16UUtoIB13Oqxugadb4-45">
          <mxGeometry y="90" width="140" height="30" as="geometry" />
        </mxCell>
        <mxCell id="k16UUtoIB13Oqxugadb4-49" value="Materiál" style="swimlane;fontStyle=0;childLayout=stackLayout;horizontal=1;startSize=30;horizontalStack=0;resizeParent=1;resizeParentMax=0;resizeLast=0;collapsible=1;marginBottom=0;whiteSpace=wrap;html=1;" vertex="1" parent="1">
          <mxGeometry x="1300" y="370" width="140" height="120" as="geometry" />
        </mxCell>
        <mxCell id="k16UUtoIB13Oqxugadb4-50" value="Item 1" style="text;strokeColor=none;fillColor=none;align=left;verticalAlign=middle;spacingLeft=4;spacingRight=4;overflow=hidden;points=[[0,0.5],[1,0.5]];portConstraint=eastwest;rotatable=0;whiteSpace=wrap;html=1;" vertex="1" parent="k16UUtoIB13Oqxugadb4-49">
          <mxGeometry y="30" width="140" height="30" as="geometry" />
        </mxCell>
        <mxCell id="k16UUtoIB13Oqxugadb4-51" value="Item 2" style="text;strokeColor=none;fillColor=none;align=left;verticalAlign=middle;spacingLeft=4;spacingRight=4;overflow=hidden;points=[[0,0.5],[1,0.5]];portConstraint=eastwest;rotatable=0;whiteSpace=wrap;html=1;" vertex="1" parent="k16UUtoIB13Oqxugadb4-49">
          <mxGeometry y="60" width="140" height="30" as="geometry" />
        </mxCell>
        <mxCell id="k16UUtoIB13Oqxugadb4-52" value="Item 3" style="text;strokeColor=none;fillColor=none;align=left;verticalAlign=middle;spacingLeft=4;spacingRight=4;overflow=hidden;points=[[0,0.5],[1,0.5]];portConstraint=eastwest;rotatable=0;whiteSpace=wrap;html=1;" vertex="1" parent="k16UUtoIB13Oqxugadb4-49">
          <mxGeometry y="90" width="140" height="30" as="geometry" />
        </mxCell>
        <mxCell id="k16UUtoIB13Oqxugadb4-53" value="Servisná dokumentácia" style="swimlane;fontStyle=0;childLayout=stackLayout;horizontal=1;startSize=30;horizontalStack=0;resizeParent=1;resizeParentMax=0;resizeLast=0;collapsible=1;marginBottom=0;whiteSpace=wrap;html=1;" vertex="1" parent="1">
          <mxGeometry x="1080" y="570" width="140" height="120" as="geometry" />
        </mxCell>
        <mxCell id="k16UUtoIB13Oqxugadb4-54" value="Item 1" style="text;strokeColor=none;fillColor=none;align=left;verticalAlign=middle;spacingLeft=4;spacingRight=4;overflow=hidden;points=[[0,0.5],[1,0.5]];portConstraint=eastwest;rotatable=0;whiteSpace=wrap;html=1;" vertex="1" parent="k16UUtoIB13Oqxugadb4-53">
          <mxGeometry y="30" width="140" height="30" as="geometry" />
        </mxCell>
        <mxCell id="k16UUtoIB13Oqxugadb4-55" value="Item 2" style="text;strokeColor=none;fillColor=none;align=left;verticalAlign=middle;spacingLeft=4;spacingRight=4;overflow=hidden;points=[[0,0.5],[1,0.5]];portConstraint=eastwest;rotatable=0;whiteSpace=wrap;html=1;" vertex="1" parent="k16UUtoIB13Oqxugadb4-53">
          <mxGeometry y="60" width="140" height="30" as="geometry" />
        </mxCell>
        <mxCell id="k16UUtoIB13Oqxugadb4-56" value="Item 3" style="text;strokeColor=none;fillColor=none;align=left;verticalAlign=middle;spacingLeft=4;spacingRight=4;overflow=hidden;points=[[0,0.5],[1,0.5]];portConstraint=eastwest;rotatable=0;whiteSpace=wrap;html=1;" vertex="1" parent="k16UUtoIB13Oqxugadb4-53">
          <mxGeometry y="90" width="140" height="30" as="geometry" />
        </mxCell>
        <mxCell id="k16UUtoIB13Oqxugadb4-57" value="Dodací list" style="swimlane;fontStyle=0;childLayout=stackLayout;horizontal=1;startSize=30;horizontalStack=0;resizeParent=1;resizeParentMax=0;resizeLast=0;collapsible=1;marginBottom=0;whiteSpace=wrap;html=1;" vertex="1" parent="1">
          <mxGeometry x="1300" y="570" width="140" height="120" as="geometry" />
        </mxCell>
        <mxCell id="k16UUtoIB13Oqxugadb4-58" value="Item 1" style="text;strokeColor=none;fillColor=none;align=left;verticalAlign=middle;spacingLeft=4;spacingRight=4;overflow=hidden;points=[[0,0.5],[1,0.5]];portConstraint=eastwest;rotatable=0;whiteSpace=wrap;html=1;" vertex="1" parent="k16UUtoIB13Oqxugadb4-57">
          <mxGeometry y="30" width="140" height="30" as="geometry" />
        </mxCell>
        <mxCell id="k16UUtoIB13Oqxugadb4-59" value="Item 2" style="text;strokeColor=none;fillColor=none;align=left;verticalAlign=middle;spacingLeft=4;spacingRight=4;overflow=hidden;points=[[0,0.5],[1,0.5]];portConstraint=eastwest;rotatable=0;whiteSpace=wrap;html=1;" vertex="1" parent="k16UUtoIB13Oqxugadb4-57">
          <mxGeometry y="60" width="140" height="30" as="geometry" />
        </mxCell>
        <mxCell id="k16UUtoIB13Oqxugadb4-60" value="Item 3" style="text;strokeColor=none;fillColor=none;align=left;verticalAlign=middle;spacingLeft=4;spacingRight=4;overflow=hidden;points=[[0,0.5],[1,0.5]];portConstraint=eastwest;rotatable=0;whiteSpace=wrap;html=1;" vertex="1" parent="k16UUtoIB13Oqxugadb4-57">
          <mxGeometry y="90" width="140" height="30" as="geometry" />
        </mxCell>
      </root>
    </mxGraphModel>
  </diagram>
</mxfile>
